<svg width="40" height="40" viewBox="0 0 40 40" fill="none" xmlns="http://www.w3.org/2000/svg">
<rect x="0.5" y="0.5" width="39" height="39" rx="3.5" fill="#333333"/>
<rect x="0.5" y="0.5" width="39" height="39" rx="3.5" stroke="#777777"/>
<path d="M22.9057 20.7402L24.1698 27.8973C24.1988 28.0698 24.1183 28.2424 23.9679 28.3302C23.8174 28.4181 23.6285 28.4028 23.494 28.2918L20.5067 26.0362C20.2106 25.8136 19.8041 25.8136 19.5079 26.0362L16.5157 28.291C16.3813 28.4017 16.1927 28.417 16.0423 28.3295C15.892 28.2419 15.8113 28.0697 15.8398 27.8973L17.1032 20.7402" stroke="#F59E0B" stroke-width="2" stroke-linecap="round" stroke-linejoin="round"/>
<path d="M15 16.6699C15 13.9085 17.2386 11.6699 20 11.6699C22.7614 11.6699 25 13.9085 25 16.6699C25 19.4313 22.7614 21.6699 20 21.6699C17.2386 21.6699 15 19.4313 15 16.6699Z" stroke="#F59E0B" stroke-width="2" stroke-linecap="round" stroke-linejoin="round"/>
</svg>
