<svg width="1434" height="614" viewBox="0 0 1434 614" fill="none" xmlns="http://www.w3.org/2000/svg">
<path d="M180.005 608.152C179.992 604.711 180.006 600.201 180.025 596.773C180.031 595.699 180.058 596.243 180.063 595.501C180.073 594.051 180.06 592.7 180.072 591.266C180.077 590.792 180.119 591.383 180.122 590.885C180.141 588.155 180.13 585.573 180.139 582.809C180.183 569.19 180.199 555.804 180.218 542.019C180.224 537.474 180.262 531.948 180.245 527.253C180.243 526.705 180.207 527.032 180.204 526.928C180.157 525.292 180.231 525.836 180.241 524.768C180.28 520.53 180.284 515.817 180.27 511.738C180.263 510.003 180.19 511.743 180.231 509.996C180.234 509.874 180.273 510.315 180.277 509.839C180.287 508.76 180.28 506.712 180.283 505.876C180.289 504.264 180.289 503.997 180.289 502.473C180.29 500.388 180.309 497.909 180.301 495.673C180.299 495.196 180.258 495.828 180.252 495.066C180.245 494.305 180.248 492.289 180.258 491.609C180.267 490.93 180.299 491.219 180.306 491.099C180.367 490.109 180.282 487.778 180.28 487.478C180.245 482.008 180.293 477.317 180.293 472.183C180.293 468.285 180.277 464.117 180.279 460.409C180.282 455.99 180.303 452.245 180.3 447.953C180.299 447.5 180.252 448.03 180.252 447.477C180.246 441.599 180.251 435.761 180.283 429.908C180.286 429.321 180.328 430.077 180.333 429.491C180.367 425.9 180.449 420.219 180.269 418.087C180.276 415.655 180.283 412.702 180.32 410.526C180.343 409.123 180.388 410.486 180.369 408.762C180.364 408.374 180.325 408.879 180.322 408.296C180.307 405.842 180.32 403.161 180.3 400.733C180.295 400.239 180.26 400.374 180.253 400.234C180.202 399.058 180.287 397.101 180.293 396.674C180.34 393.425 180.321 391.052 180.323 388.024C180.323 387.322 180.275 388.152 180.274 387.476C180.267 383.97 180.271 380.339 180.292 376.906C180.297 376.142 180.338 376.844 180.342 376.479C180.361 374.87 180.284 374.514 180.301 372.971C180.304 372.645 180.339 372.829 180.343 372.769C180.402 371.841 180.318 371.034 180.316 370.795C180.29 367.773 180.379 365.842 180.366 362.923C180.365 362.573 180.321 363.361 180.319 362.379C180.307 355.839 180.319 348.923 180.354 342.449C180.359 341.443 180.392 342.161 180.396 342.098C180.46 341.066 180.375 340.398 180.372 340.069C180.349 337.48 180.42 335.062 180.319 333.303C180.354 322.338 180.297 311.423 180.388 300.549C180.389 300.411 180.431 300.659 180.432 300.383C180.456 297.061 180.391 297.699 180.311 295.501C180.291 294.948 180.387 293.264 180.394 293.115C180.42 292.572 180.483 293.135 180.488 292.953C180.527 291.449 180.321 291.694 180.321 289.665C180.321 289.601 180.359 289.868 180.363 289.697C180.375 289.168 180.36 288.644 180.373 288.126C180.403 286.941 180.503 286.519 180.445 284.709C180.437 284.479 180.321 284.829 180.326 283.017C180.328 282.295 180.326 279.098 180.334 278.202C180.341 277.307 180.379 277.921 180.381 277.858C180.431 275.446 180.451 276.361 180.525 275.152C180.599 273.944 180.423 274.279 180.404 273.787C180.384 273.293 180.425 271.525 180.44 271.091C180.454 270.657 180.478 271.198 180.486 270.812C180.539 268.252 180.399 269.688 180.371 268.845C180.305 266.856 180.435 265.306 180.448 263.486C180.451 262.993 180.422 263.395 180.419 262.956C180.408 261.219 180.449 260.174 180.412 258.197C180.406 257.873 180.328 256.275 180.385 255.241C180.393 255.094 180.426 255.511 180.433 254.77C180.444 253.664 180.451 251.671 180.44 250.482C180.432 249.604 180.379 250.61 180.395 249.505C180.403 249.014 180.434 249.924 180.445 249.001C180.456 248.083 180.455 245.737 180.454 244.844C180.453 243.952 180.412 244.44 180.41 244.368C180.394 243.932 180.375 242.222 180.375 242.071C180.37 234.446 180.438 227.414 180.415 219.99C180.414 219.408 180.371 219.796 180.37 219.707C180.352 217.712 180.466 219.285 180.504 217.892C180.417 218.093 180.433 217.271 180.423 215.866C180.419 215.189 180.385 215.557 180.382 215.496C180.331 214.492 180.397 213.793 180.41 213.613C180.46 212.948 180.401 212.224 180.434 211.771C180.467 211.319 180.516 212.36 180.515 211.013C180.484 210.635 180.403 211.635 180.39 210.612C180.34 206.752 180.404 199.547 180.41 196.444C180.417 193.347 180.411 192.346 180.422 190.542C180.443 187.282 180.383 188.476 180.355 186.452C180.328 184.422 180.476 185.409 180.507 185.117C180.539 184.831 180.506 184.518 180.524 184.161C180.541 183.806 180.563 184.575 180.57 183.74C180.576 182.904 180.52 180.619 180.486 180.322C180.416 179.696 180.342 180.726 180.368 178.514C180.369 178.387 180.408 178.8 180.412 178.313C180.442 174.444 180.444 170.426 180.471 166.562C180.474 166.031 180.518 166.506 180.52 166.196C180.548 162.976 180.475 164.127 180.394 162.362C180.502 162.759 180.568 161.782 180.568 159.338C180.569 157.869 180.522 158.122 180.488 157.172C180.478 156.887 180.511 155.847 180.489 155.659C180.416 155.037 180.335 156.017 180.367 153.497C180.369 153.386 180.409 153.738 180.411 153.356C180.427 150.887 180.351 150.592 180.342 147.922C180.335 145.83 180.381 142.109 180.388 139.727C180.51 139.777 180.482 137.527 180.398 136.614C180.402 135.068 180.397 133.398 180.408 131.904C180.412 131.39 180.447 131.727 180.451 131.663C180.511 130.668 180.429 129.996 180.426 129.662C180.395 126.046 180.457 123.099 180.397 119.647C180.394 119.524 180.31 119.326 180.372 118.403C180.376 118.344 180.414 119.483 180.417 117.86C180.42 116.236 180.465 113.174 180.426 110.92C180.417 110.374 180.349 108.994 180.402 107.887C180.409 107.739 180.433 107.901 180.447 107.688C180.49 106.999 180.405 106.623 180.477 105.814C180.549 105.004 180.603 103.321 180.553 101.047C180.552 100.975 180.485 100.437 180.486 99.7216C180.487 98.5802 180.501 96.9599 180.501 95.7679C180.501 95.1972 180.459 95.5626 180.458 95.4635C180.435 91.6266 180.472 88.8957 180.488 84.7852C180.491 84.0317 180.434 81.8664 180.479 80.4076C180.529 78.8059 180.734 80.4518 180.685 76.7701C180.666 75.2851 180.405 73.4052 180.54 70.7366C180.507 65.561 180.576 60.7747 180.528 55.5846C180.526 55.3513 180.453 54.6132 180.454 54.0646C180.456 53.25 180.49 52.8028 180.492 52.2212C180.502 49.7839 180.473 47.5538 180.477 45.2039C180.479 44.3118 180.514 44.6237 180.516 43.5597C180.518 42.4963 180.472 41.7871 180.494 40.3461C180.511 39.2578 180.606 38.1697 180.617 36.725C180.524 36.67 180.526 35.6778 180.501 33.9144C180.496 33.5754 180.464 33.939 180.46 33.7785C180.443 33.1261 180.47 32.522 180.452 31.9024C180.447 31.7516 180.415 31.7446 180.41 31.6213C180.363 30.5734 180.435 28.8472 180.447 28.5507C180.495 27.4143 180.453 26.8833 180.472 26.0117C180.491 25.1415 180.514 26.4426 180.525 25.4262C180.549 23.3191 180.544 20.6119 180.545 18.4721C180.545 17.6182 180.503 18.2008 180.502 18.0786C180.491 16.3131 180.536 14.5277 180.452 13.5487C180.671 12.3246 180.43 12.484 180.474 9.96038C180.478 9.76162 180.582 9.50866 180.597 10.2719C180.612 11.035 180.58 12.1923 180.603 13.2512C180.609 13.5021 180.706 14.9383 180.712 15.1344C180.758 16.6696 180.603 16.8871 180.594 16.9683C180.503 17.8893 180.607 19.6447 180.615 20.1069C180.648 22.2216 180.626 24.0181 180.65 25.7869C180.665 26.9436 180.766 27.0568 180.763 27.9651C180.753 30.9847 180.611 32.0386 180.734 34.884C180.76 35.4942 180.871 34.8879 180.784 37.074C180.779 37.2113 180.699 38.8345 180.749 39.7723C180.756 39.89 180.788 39.8864 180.791 40.0416C180.808 41.0827 180.783 41.7768 180.795 42.9109C180.807 44.0448 180.826 45.4083 180.815 46.7029C180.808 47.4832 180.748 48.4844 180.733 48.8578C180.691 49.9125 180.76 51.0431 180.709 51.6966C180.657 52.3555 180.578 51.0672 180.545 52.7951C180.629 52.859 180.715 53.0061 180.8 53.1089C180.797 56.8952 180.77 60.6207 180.773 64.4195C180.774 64.8905 180.819 64.4088 180.821 64.9137C180.828 67.044 180.796 68.9046 180.809 71.1137C180.819 72.8236 180.867 74.6987 180.879 76.4867C180.783 77.5789 180.815 80.2321 180.806 82.1596C180.803 82.8348 180.778 82.7896 180.769 83.2698C180.738 85.0812 180.823 84.2325 180.837 84.729C180.894 86.8598 180.701 87.042 180.706 89.554C180.706 89.687 180.809 91.3139 180.815 91.5379C180.857 92.9615 180.78 91.7736 180.772 92.6645C180.758 94.2913 180.734 95.4217 180.764 97.3302C180.773 97.8868 180.837 99.2217 180.787 100.302C180.781 100.445 180.747 100.366 180.745 100.481C180.712 102.552 180.818 102.606 180.854 103.79C180.89 104.974 180.817 106.802 180.796 107.175C180.741 108.148 180.772 106.429 180.767 106.376C180.703 105.757 180.714 107.09 180.708 108.109C180.604 108.257 180.61 109.682 180.703 109.166C180.713 109.107 180.704 108.314 180.708 108.109C180.811 109.004 180.824 110.57 180.728 112.299C180.683 113.109 180.631 112.344 180.65 114.803C180.659 115.92 180.731 115.488 180.75 116.473C180.795 118.724 180.728 121.648 180.738 123.968C180.742 124.81 180.782 123.99 180.786 124.566C180.796 126.093 180.767 127.44 180.782 128.974C180.783 129.113 180.825 128.773 180.825 129.25C180.83 132.866 180.803 136.015 180.803 139.79C180.802 141.614 180.825 144.876 180.821 146.765C180.813 150.041 180.753 154.069 180.768 156.867C180.777 158.692 180.818 158.292 180.846 159.074C180.901 160.583 180.803 163.253 180.788 163.613C180.787 163.624 180.778 162.054 180.757 162.892C180.713 163.379 180.788 163.595 180.788 163.613C180.778 163.849 180.769 166.986 180.777 167.609C180.781 167.947 180.82 167.758 180.822 167.934C180.857 172.129 180.866 176.331 180.848 180.585C180.847 180.66 180.804 180.547 180.802 180.723C180.783 183.186 180.836 184.763 180.868 186.794C180.9 188.825 180.889 190.436 180.814 191.638C180.824 193.17 180.791 195.369 180.77 196.634C180.75 197.899 180.835 198.075 180.837 198.187C180.891 201.659 180.842 203.665 180.835 207.267C180.831 208.98 180.843 212.377 180.852 214.231C180.86 215.696 180.84 216.579 180.853 217.929C180.854 218.112 180.892 217.927 180.894 217.983C180.939 219.49 180.847 218.766 180.83 219.077C180.77 220.205 180.738 220.902 180.766 222.832C180.773 223.277 180.906 224.573 180.914 225.385C180.924 226.44 180.876 226.041 180.887 227.146C180.888 227.24 180.918 227.221 180.917 227.902C180.911 231.067 180.894 234.517 180.897 237.805C180.897 238.255 180.944 237.679 180.945 238.328C180.95 241.373 180.949 244.711 180.927 247.678C180.921 248.408 180.889 247.95 180.879 248.109C180.82 249.082 180.905 250.462 180.907 250.69C180.948 256.122 180.871 260.279 180.908 265.816C180.91 266.118 181.001 268.437 180.923 269.472C180.918 269.543 180.837 270.567 180.892 271.473C180.896 271.529 180.937 270.891 180.933 272.004C180.929 273.118 180.956 274.91 180.911 276.44C180.896 276.925 180.816 278.07 180.88 279.516C180.885 279.61 181.029 281.841 180.929 282.638C180.913 282.767 180.808 282.632 180.862 284.357C180.872 284.687 180.896 284.088 180.91 284.957C180.933 286.287 180.905 288.05 180.952 289.686C180.96 289.971 181.032 291.185 180.977 292.159C180.969 292.312 180.934 292.022 180.93 292.536C180.911 294.982 180.934 297.543 180.91 300.027C180.901 300.906 180.844 300.457 180.829 301.373C180.814 302.291 180.799 304.138 180.825 305.098C180.851 306.057 180.942 305.009 180.949 306.447C180.981 312.697 180.928 318.889 180.92 325.131C180.919 326.056 180.951 325.289 180.952 326.653C180.954 331.683 180.985 340.366 180.916 344.73C180.86 348.227 180.818 343.827 180.796 346.499C180.785 347.788 180.891 349.183 180.894 349.495C180.928 352.535 180.881 354.649 180.895 357.386C180.898 357.951 180.941 357.396 180.943 357.877C180.95 359.52 180.931 361.247 180.935 362.817C180.936 363.522 180.969 363.392 180.967 364.04C180.961 365.591 180.947 366.962 180.917 368.474C180.914 368.612 180.873 367.682 180.872 368.83C180.869 370.687 180.839 372.992 180.87 375.128C180.88 375.762 180.954 375.787 180.903 377.149C180.892 377.435 180.802 377.07 180.88 378.658C180.893 378.925 180.997 381.591 180.93 382.899C180.912 383.245 180.839 384.126 180.85 384.888C180.852 384.991 180.892 384.577 180.896 385.209C180.909 387.435 180.905 389.768 180.918 392.055C180.921 392.666 180.962 391.756 180.966 392.667C180.977 395.17 180.966 398.295 180.953 400.743C180.948 401.645 180.914 401.021 180.91 401.087C180.849 402.143 180.931 402.767 180.936 403.118C180.965 405.297 180.926 406.957 180.937 408.966C180.939 409.521 180.978 409.127 180.982 409.238C181.016 410.383 180.946 409.53 180.938 410.254C180.916 412.284 180.919 414.547 180.924 416.599C180.926 417.353 180.971 416.506 180.973 417.183C180.98 421.187 180.976 425.351 180.951 429.259C180.946 429.995 180.911 429.532 180.903 429.685C180.848 430.743 180.924 432.292 180.931 432.648C180.964 434.269 180.933 434.899 180.939 436.33C180.968 443.323 180.947 451.957 180.935 458.558C180.918 467.16 180.885 473.834 180.894 482.037C180.894 482.558 180.941 482.032 180.942 482.482C180.953 488.284 180.935 493.996 180.948 499.809C180.949 500.287 180.993 499.599 180.996 500.365C181.003 501.935 181.001 503.925 180.987 505.513C180.98 506.287 180.942 505.248 180.936 506.028C180.922 507.843 180.919 509.789 180.926 511.654C180.929 512.448 180.974 511.25 180.974 512.282C180.979 519.308 180.987 526.208 180.928 533.308C180.924 533.795 180.833 534.222 180.85 535.257C180.876 535.335 180.906 535.33 180.933 535.365C180.947 545.593 180.916 555.716 180.911 565.973C180.911 566.405 180.959 565.658 180.959 566.495C180.958 571.341 180.972 576.046 180.923 581.003C180.919 581.495 180.833 581.242 180.846 582.692C180.849 582.947 180.86 585.13 180.878 585.694C180.881 585.771 180.921 585.373 180.922 586.076C180.928 590.164 180.919 594.447 180.895 598.527C180.891 599.186 180.848 598.485 180.845 598.954C180.823 602.281 180.855 605.9 180.816 609.079C180.79 611.207 180.717 610.419 180.645 611.55C180.635 611.71 180.633 613.028 180.591 613.096C180.485 613.271 180.37 612.633 180.257 612.895C180.233 612.95 180.259 614.715 180.2 613.67C180.196 613.597 180.177 612.317 180.157 612.002C180.143 611.783 180.1 612.178 180.083 611.731C180.065 611.283 180.101 610.791 180.08 610.049C180.059 609.307 180.011 609.633 180.005 608.152ZM180.681 202.33C180.64 203.501 180.789 203.674 180.753 202.407C180.752 202.346 180.683 202.27 180.681 202.33ZM180.657 60.5994C180.591 62.1308 180.688 63.1788 180.739 62.0984C180.79 61.0182 180.677 60.1328 180.657 60.5994ZM180.609 44.7191C180.557 46.509 180.769 46.7906 180.726 44.8736C180.724 44.7623 180.612 44.6144 180.609 44.7191ZM180.624 606.306C180.622 606.322 180.62 607.269 180.622 607.292C180.67 607.796 180.674 605.902 180.624 606.306ZM180.556 28.9606C180.528 29.5193 180.561 31.128 180.596 30.4338C180.625 29.8749 180.592 28.2647 180.556 28.9606ZM180.521 263.436C180.519 263.455 180.517 264.134 180.529 264.12C180.57 264.074 180.558 263.129 180.521 263.436ZM180.554 2.17717C180.546 6.13437 180.371 8.53354 180.391 4.22431C180.394 3.44388 180.446 5.90613 180.462 4.91289C180.491 3.0955 180.381 1.88855 180.44 0.0340721C180.451 -0.301789 180.555 1.95148 180.554 2.1842C180.554 2.18182 180.554 2.17961 180.554 2.17717ZM180.501 203.005C180.499 203.028 180.497 203.968 180.499 203.991C180.547 204.5 180.55 202.606 180.501 203.005ZM180.428 303.065C180.424 303.116 180.42 305.298 180.424 305.369C180.502 306.507 180.51 302.097 180.428 303.065ZM180.391 139.689C180.344 138.664 180.338 137.436 180.398 136.619C180.395 137.638 180.394 138.664 180.391 139.689Z" fill="#D6D6D6"/>
<path d="M533.005 608.152C532.992 604.711 533.006 600.201 533.025 596.773C533.031 595.699 533.058 596.243 533.063 595.501C533.073 594.051 533.06 592.7 533.072 591.266C533.077 590.792 533.119 591.383 533.122 590.885C533.141 588.155 533.13 585.573 533.139 582.809C533.183 569.19 533.199 555.804 533.218 542.019C533.224 537.474 533.262 531.948 533.245 527.253C533.243 526.705 533.207 527.032 533.204 526.928C533.157 525.292 533.231 525.836 533.241 524.768C533.28 520.53 533.284 515.817 533.27 511.738C533.263 510.003 533.19 511.743 533.231 509.996C533.234 509.874 533.273 510.315 533.277 509.839C533.287 508.76 533.28 506.712 533.283 505.876C533.289 504.264 533.289 503.997 533.289 502.473C533.29 500.388 533.309 497.909 533.301 495.673C533.299 495.196 533.258 495.828 533.252 495.066C533.245 494.305 533.248 492.289 533.258 491.609C533.267 490.93 533.299 491.219 533.306 491.099C533.367 490.109 533.282 487.778 533.28 487.478C533.245 482.008 533.293 477.317 533.293 472.183C533.293 468.285 533.277 464.117 533.279 460.409C533.282 455.99 533.303 452.245 533.3 447.953C533.299 447.5 533.252 448.03 533.252 447.477C533.246 441.599 533.251 435.761 533.283 429.908C533.286 429.321 533.328 430.077 533.333 429.491C533.367 425.9 533.449 420.219 533.269 418.087C533.276 415.655 533.283 412.702 533.32 410.526C533.343 409.123 533.388 410.486 533.369 408.762C533.364 408.374 533.325 408.879 533.322 408.296C533.307 405.842 533.32 403.161 533.3 400.733C533.295 400.239 533.26 400.374 533.253 400.234C533.202 399.058 533.287 397.101 533.293 396.674C533.34 393.425 533.321 391.052 533.323 388.024C533.323 387.322 533.275 388.152 533.274 387.476C533.267 383.97 533.271 380.339 533.292 376.906C533.297 376.142 533.338 376.844 533.342 376.479C533.361 374.87 533.284 374.514 533.301 372.971C533.304 372.645 533.339 372.829 533.343 372.769C533.402 371.841 533.318 371.034 533.316 370.795C533.29 367.773 533.379 365.842 533.366 362.923C533.365 362.573 533.321 363.361 533.319 362.379C533.307 355.839 533.319 348.923 533.354 342.449C533.359 341.443 533.392 342.161 533.396 342.098C533.46 341.066 533.375 340.398 533.372 340.069C533.349 337.48 533.42 335.062 533.319 333.303C533.354 322.338 533.297 311.423 533.388 300.549C533.389 300.411 533.431 300.659 533.432 300.383C533.456 297.061 533.391 297.699 533.311 295.501C533.291 294.948 533.387 293.264 533.394 293.115C533.42 292.572 533.483 293.135 533.488 292.953C533.527 291.449 533.321 291.694 533.321 289.665C533.321 289.601 533.359 289.868 533.363 289.697C533.375 289.168 533.36 288.644 533.373 288.126C533.403 286.941 533.503 286.519 533.445 284.709C533.437 284.479 533.321 284.829 533.326 283.017C533.328 282.295 533.326 279.098 533.334 278.202C533.341 277.307 533.379 277.921 533.381 277.858C533.431 275.446 533.451 276.361 533.525 275.152C533.599 273.944 533.423 274.279 533.404 273.787C533.384 273.293 533.425 271.525 533.44 271.091C533.454 270.657 533.478 271.198 533.486 270.812C533.539 268.252 533.399 269.688 533.371 268.845C533.305 266.856 533.435 265.306 533.448 263.486C533.451 262.993 533.422 263.395 533.419 262.956C533.408 261.219 533.449 260.174 533.412 258.197C533.406 257.873 533.328 256.275 533.385 255.241C533.393 255.094 533.426 255.511 533.433 254.77C533.444 253.664 533.451 251.671 533.44 250.482C533.432 249.604 533.379 250.61 533.395 249.505C533.403 249.014 533.434 249.924 533.445 249.001C533.456 248.083 533.455 245.737 533.454 244.844C533.453 243.952 533.412 244.44 533.41 244.368C533.394 243.932 533.375 242.222 533.375 242.071C533.37 234.446 533.438 227.414 533.415 219.99C533.414 219.408 533.371 219.796 533.37 219.707C533.352 217.712 533.466 219.285 533.504 217.892C533.417 218.093 533.433 217.271 533.423 215.866C533.419 215.189 533.385 215.557 533.382 215.496C533.331 214.492 533.397 213.793 533.41 213.613C533.46 212.948 533.401 212.224 533.434 211.771C533.467 211.319 533.516 212.36 533.515 211.013C533.484 210.635 533.403 211.635 533.39 210.612C533.34 206.752 533.404 199.547 533.41 196.444C533.417 193.347 533.411 192.346 533.422 190.542C533.443 187.282 533.383 188.476 533.355 186.452C533.328 184.422 533.476 185.409 533.507 185.117C533.539 184.831 533.506 184.518 533.524 184.161C533.541 183.806 533.563 184.575 533.57 183.74C533.576 182.904 533.52 180.619 533.486 180.322C533.416 179.696 533.342 180.726 533.368 178.514C533.369 178.387 533.408 178.8 533.412 178.313C533.442 174.444 533.444 170.426 533.471 166.562C533.474 166.031 533.518 166.506 533.52 166.196C533.548 162.976 533.475 164.127 533.394 162.362C533.502 162.759 533.568 161.782 533.568 159.338C533.569 157.869 533.522 158.122 533.488 157.172C533.478 156.887 533.511 155.847 533.489 155.659C533.416 155.037 533.335 156.017 533.367 153.497C533.369 153.386 533.409 153.738 533.411 153.356C533.427 150.887 533.351 150.592 533.342 147.922C533.335 145.83 533.381 142.109 533.388 139.727C533.51 139.777 533.482 137.527 533.398 136.614C533.402 135.068 533.397 133.398 533.408 131.904C533.412 131.39 533.447 131.727 533.451 131.663C533.511 130.668 533.429 129.996 533.426 129.662C533.395 126.046 533.457 123.099 533.397 119.647C533.394 119.524 533.31 119.326 533.372 118.403C533.376 118.344 533.414 119.483 533.417 117.86C533.42 116.236 533.465 113.174 533.426 110.92C533.417 110.374 533.349 108.994 533.402 107.887C533.409 107.739 533.433 107.901 533.447 107.688C533.49 106.999 533.405 106.623 533.477 105.814C533.549 105.004 533.603 103.321 533.553 101.047C533.552 100.975 533.485 100.437 533.486 99.7216C533.487 98.5802 533.501 96.9599 533.501 95.7679C533.501 95.1972 533.459 95.5626 533.458 95.4635C533.435 91.6266 533.472 88.8957 533.488 84.7852C533.491 84.0317 533.434 81.8664 533.479 80.4076C533.529 78.8059 533.734 80.4518 533.685 76.7701C533.666 75.2851 533.405 73.4052 533.54 70.7366C533.507 65.561 533.576 60.7747 533.528 55.5846C533.526 55.3513 533.453 54.6132 533.454 54.0646C533.456 53.25 533.49 52.8028 533.492 52.2212C533.502 49.7839 533.473 47.5538 533.477 45.2039C533.479 44.3118 533.514 44.6237 533.516 43.5597C533.518 42.4963 533.472 41.7871 533.494 40.3461C533.511 39.2578 533.606 38.1697 533.617 36.725C533.524 36.67 533.526 35.6778 533.501 33.9144C533.496 33.5754 533.464 33.939 533.46 33.7785C533.443 33.1261 533.47 32.522 533.452 31.9024C533.447 31.7516 533.415 31.7446 533.41 31.6213C533.363 30.5734 533.435 28.8472 533.447 28.5507C533.495 27.4143 533.453 26.8833 533.472 26.0117C533.491 25.1415 533.514 26.4426 533.525 25.4262C533.549 23.3191 533.544 20.6119 533.545 18.4721C533.545 17.6182 533.503 18.2008 533.502 18.0786C533.491 16.3131 533.536 14.5277 533.452 13.5487C533.671 12.3246 533.43 12.484 533.474 9.96038C533.478 9.76162 533.582 9.50866 533.597 10.2719C533.612 11.035 533.58 12.1923 533.603 13.2512C533.609 13.5021 533.706 14.9383 533.712 15.1344C533.758 16.6696 533.603 16.8871 533.594 16.9683C533.503 17.8893 533.607 19.6447 533.615 20.1069C533.648 22.2216 533.626 24.0181 533.65 25.7869C533.665 26.9436 533.766 27.0568 533.763 27.9651C533.753 30.9847 533.611 32.0386 533.734 34.884C533.76 35.4942 533.871 34.8879 533.784 37.074C533.779 37.2113 533.699 38.8345 533.749 39.7723C533.756 39.89 533.788 39.8864 533.791 40.0416C533.808 41.0827 533.783 41.7768 533.795 42.9109C533.807 44.0448 533.826 45.4083 533.815 46.7029C533.808 47.4832 533.748 48.4844 533.733 48.8578C533.691 49.9125 533.76 51.0431 533.709 51.6966C533.657 52.3555 533.578 51.0672 533.545 52.7951C533.629 52.859 533.715 53.0061 533.8 53.1089C533.797 56.8952 533.77 60.6207 533.773 64.4195C533.774 64.8905 533.819 64.4088 533.821 64.9137C533.828 67.044 533.796 68.9046 533.809 71.1137C533.819 72.8236 533.867 74.6987 533.879 76.4867C533.783 77.5789 533.815 80.2321 533.806 82.1596C533.803 82.8348 533.778 82.7896 533.769 83.2698C533.738 85.0812 533.823 84.2325 533.837 84.729C533.894 86.8598 533.701 87.042 533.706 89.554C533.706 89.687 533.809 91.3139 533.815 91.5379C533.857 92.9615 533.78 91.7736 533.772 92.6645C533.758 94.2913 533.734 95.4217 533.764 97.3302C533.773 97.8868 533.837 99.2217 533.787 100.302C533.781 100.445 533.747 100.366 533.745 100.481C533.712 102.552 533.818 102.606 533.854 103.79C533.89 104.974 533.817 106.802 533.796 107.175C533.741 108.148 533.772 106.429 533.767 106.376C533.703 105.757 533.714 107.09 533.708 108.109C533.604 108.257 533.61 109.682 533.703 109.166C533.713 109.107 533.704 108.314 533.708 108.109C533.811 109.004 533.824 110.57 533.728 112.299C533.683 113.109 533.631 112.344 533.65 114.803C533.659 115.92 533.731 115.488 533.75 116.473C533.795 118.724 533.728 121.648 533.738 123.968C533.742 124.81 533.782 123.99 533.786 124.566C533.796 126.093 533.767 127.44 533.782 128.974C533.783 129.113 533.825 128.773 533.825 129.25C533.83 132.866 533.803 136.015 533.803 139.79C533.802 141.614 533.825 144.876 533.821 146.765C533.813 150.041 533.753 154.069 533.768 156.867C533.777 158.692 533.818 158.292 533.846 159.074C533.901 160.583 533.803 163.253 533.788 163.613C533.787 163.624 533.778 162.054 533.757 162.892C533.713 163.379 533.788 163.595 533.788 163.613C533.778 163.849 533.769 166.986 533.777 167.609C533.781 167.947 533.82 167.758 533.822 167.934C533.857 172.129 533.866 176.331 533.848 180.585C533.847 180.66 533.804 180.547 533.802 180.723C533.783 183.186 533.836 184.763 533.868 186.794C533.9 188.825 533.889 190.436 533.814 191.638C533.824 193.17 533.791 195.369 533.77 196.634C533.75 197.899 533.835 198.075 533.837 198.187C533.891 201.659 533.842 203.665 533.835 207.267C533.831 208.98 533.843 212.377 533.852 214.231C533.86 215.696 533.84 216.579 533.853 217.929C533.854 218.112 533.892 217.927 533.894 217.983C533.939 219.49 533.847 218.766 533.83 219.077C533.77 220.205 533.738 220.902 533.766 222.832C533.773 223.277 533.906 224.573 533.914 225.385C533.924 226.44 533.876 226.041 533.887 227.146C533.888 227.24 533.918 227.221 533.917 227.902C533.911 231.067 533.894 234.517 533.897 237.805C533.897 238.255 533.944 237.679 533.945 238.328C533.95 241.373 533.949 244.711 533.927 247.678C533.921 248.408 533.889 247.95 533.879 248.109C533.82 249.082 533.905 250.462 533.907 250.69C533.948 256.122 533.871 260.279 533.908 265.816C533.91 266.118 534.001 268.437 533.923 269.472C533.918 269.543 533.837 270.567 533.892 271.473C533.896 271.529 533.937 270.891 533.933 272.004C533.929 273.118 533.956 274.91 533.911 276.44C533.896 276.925 533.816 278.07 533.88 279.516C533.885 279.61 534.029 281.841 533.929 282.638C533.913 282.767 533.808 282.632 533.862 284.357C533.872 284.687 533.896 284.088 533.91 284.957C533.933 286.287 533.905 288.05 533.952 289.686C533.96 289.971 534.032 291.185 533.977 292.159C533.969 292.312 533.934 292.022 533.93 292.536C533.911 294.982 533.934 297.543 533.91 300.027C533.901 300.906 533.844 300.457 533.829 301.373C533.814 302.291 533.799 304.138 533.825 305.098C533.851 306.057 533.942 305.009 533.949 306.447C533.981 312.697 533.928 318.889 533.92 325.131C533.919 326.056 533.951 325.289 533.952 326.653C533.954 331.683 533.985 340.366 533.916 344.73C533.86 348.227 533.818 343.827 533.796 346.499C533.785 347.788 533.891 349.183 533.894 349.495C533.928 352.535 533.881 354.649 533.895 357.386C533.898 357.951 533.941 357.396 533.943 357.877C533.95 359.52 533.931 361.247 533.935 362.817C533.936 363.522 533.969 363.392 533.967 364.04C533.961 365.591 533.947 366.962 533.917 368.474C533.914 368.612 533.873 367.682 533.872 368.83C533.869 370.687 533.839 372.992 533.87 375.128C533.88 375.762 533.954 375.787 533.903 377.149C533.892 377.435 533.802 377.07 533.88 378.658C533.893 378.925 533.997 381.591 533.93 382.899C533.912 383.245 533.839 384.126 533.85 384.888C533.852 384.991 533.892 384.577 533.896 385.209C533.909 387.435 533.905 389.768 533.918 392.055C533.921 392.666 533.962 391.756 533.966 392.667C533.977 395.17 533.966 398.295 533.953 400.743C533.948 401.645 533.914 401.021 533.91 401.087C533.849 402.143 533.931 402.767 533.936 403.118C533.965 405.297 533.926 406.957 533.937 408.966C533.939 409.521 533.978 409.127 533.982 409.238C534.016 410.383 533.946 409.53 533.938 410.254C533.916 412.284 533.919 414.547 533.924 416.599C533.926 417.353 533.971 416.506 533.973 417.183C533.98 421.187 533.976 425.351 533.951 429.259C533.946 429.995 533.911 429.532 533.903 429.685C533.848 430.743 533.924 432.292 533.931 432.648C533.964 434.269 533.933 434.899 533.939 436.33C533.968 443.323 533.947 451.957 533.935 458.558C533.918 467.16 533.885 473.834 533.894 482.037C533.894 482.558 533.941 482.032 533.942 482.482C533.953 488.284 533.935 493.996 533.948 499.809C533.949 500.287 533.993 499.599 533.996 500.365C534.003 501.935 534.001 503.925 533.987 505.513C533.98 506.287 533.942 505.248 533.936 506.028C533.922 507.843 533.919 509.789 533.926 511.654C533.929 512.448 533.974 511.25 533.974 512.282C533.979 519.308 533.987 526.208 533.928 533.308C533.924 533.795 533.833 534.222 533.85 535.257C533.876 535.335 533.906 535.33 533.933 535.365C533.947 545.593 533.916 555.716 533.911 565.973C533.911 566.405 533.959 565.658 533.959 566.495C533.958 571.341 533.972 576.046 533.923 581.003C533.919 581.495 533.833 581.242 533.846 582.692C533.849 582.947 533.86 585.13 533.878 585.694C533.881 585.771 533.921 585.373 533.922 586.076C533.928 590.164 533.919 594.447 533.895 598.527C533.891 599.186 533.848 598.485 533.845 598.954C533.823 602.281 533.855 605.9 533.816 609.079C533.79 611.207 533.717 610.419 533.645 611.55C533.635 611.71 533.633 613.028 533.591 613.096C533.485 613.271 533.37 612.633 533.257 612.895C533.233 612.95 533.259 614.715 533.2 613.67C533.196 613.597 533.177 612.317 533.157 612.002C533.143 611.783 533.1 612.178 533.083 611.731C533.065 611.283 533.101 610.791 533.08 610.049C533.059 609.307 533.011 609.633 533.005 608.152ZM533.681 202.33C533.64 203.501 533.789 203.674 533.753 202.407C533.752 202.346 533.683 202.27 533.681 202.33ZM533.657 60.5994C533.591 62.1308 533.688 63.1788 533.739 62.0984C533.79 61.0182 533.677 60.1328 533.657 60.5994ZM533.609 44.7191C533.557 46.509 533.769 46.7906 533.726 44.8736C533.724 44.7623 533.612 44.6144 533.609 44.7191ZM533.624 606.306C533.622 606.322 533.62 607.269 533.622 607.292C533.67 607.796 533.674 605.902 533.624 606.306ZM533.556 28.9606C533.528 29.5193 533.561 31.128 533.596 30.4338C533.625 29.8749 533.592 28.2647 533.556 28.9606ZM533.521 263.436C533.519 263.455 533.517 264.134 533.529 264.12C533.57 264.074 533.558 263.129 533.521 263.436ZM533.554 2.17717C533.546 6.13437 533.371 8.53354 533.391 4.22431C533.394 3.44388 533.446 5.90613 533.462 4.91289C533.491 3.0955 533.381 1.88855 533.44 0.0340721C533.451 -0.301789 533.555 1.95148 533.554 2.1842C533.554 2.18182 533.554 2.17961 533.554 2.17717ZM533.501 203.005C533.499 203.028 533.497 203.968 533.499 203.991C533.547 204.5 533.55 202.606 533.501 203.005ZM533.428 303.065C533.424 303.116 533.42 305.298 533.424 305.369C533.502 306.507 533.51 302.097 533.428 303.065ZM533.391 139.689C533.344 138.664 533.338 137.436 533.398 136.619C533.395 137.638 533.394 138.664 533.391 139.689Z" fill="#D6D6D6"/>
<path d="M902.005 608.152C901.992 604.711 902.006 600.201 902.025 596.773C902.031 595.699 902.058 596.243 902.063 595.501C902.073 594.051 902.06 592.7 902.072 591.266C902.077 590.792 902.119 591.383 902.122 590.885C902.141 588.155 902.13 585.573 902.139 582.809C902.183 569.19 902.199 555.804 902.218 542.019C902.224 537.474 902.262 531.948 902.245 527.253C902.243 526.705 902.207 527.032 902.204 526.928C902.157 525.292 902.231 525.836 902.241 524.768C902.28 520.53 902.284 515.817 902.27 511.738C902.263 510.003 902.19 511.743 902.231 509.996C902.234 509.874 902.273 510.315 902.277 509.839C902.287 508.76 902.28 506.712 902.283 505.876C902.289 504.264 902.289 503.997 902.289 502.473C902.29 500.388 902.309 497.909 902.301 495.673C902.299 495.196 902.258 495.828 902.252 495.066C902.245 494.305 902.248 492.289 902.258 491.609C902.267 490.93 902.299 491.219 902.306 491.099C902.367 490.109 902.282 487.778 902.28 487.478C902.245 482.008 902.293 477.317 902.293 472.183C902.293 468.285 902.277 464.117 902.279 460.409C902.282 455.99 902.303 452.245 902.3 447.953C902.299 447.5 902.252 448.03 902.252 447.477C902.246 441.599 902.251 435.761 902.283 429.908C902.286 429.321 902.328 430.077 902.333 429.491C902.367 425.9 902.449 420.219 902.269 418.087C902.276 415.655 902.283 412.702 902.32 410.526C902.343 409.123 902.388 410.486 902.369 408.762C902.364 408.374 902.325 408.879 902.322 408.296C902.307 405.842 902.32 403.161 902.3 400.733C902.295 400.239 902.26 400.374 902.253 400.234C902.202 399.058 902.287 397.101 902.293 396.674C902.34 393.425 902.321 391.052 902.323 388.024C902.323 387.322 902.275 388.152 902.274 387.476C902.267 383.97 902.271 380.339 902.292 376.906C902.297 376.142 902.338 376.844 902.342 376.479C902.361 374.87 902.284 374.514 902.301 372.971C902.304 372.645 902.339 372.829 902.343 372.769C902.402 371.841 902.318 371.034 902.316 370.795C902.29 367.773 902.379 365.842 902.366 362.923C902.365 362.573 902.321 363.361 902.319 362.379C902.307 355.839 902.319 348.923 902.354 342.449C902.359 341.443 902.392 342.161 902.396 342.098C902.46 341.066 902.375 340.398 902.372 340.069C902.349 337.48 902.42 335.062 902.319 333.303C902.354 322.338 902.297 311.423 902.388 300.549C902.389 300.411 902.431 300.659 902.432 300.383C902.456 297.061 902.391 297.699 902.311 295.501C902.291 294.948 902.387 293.264 902.394 293.115C902.42 292.572 902.483 293.135 902.488 292.953C902.527 291.449 902.321 291.694 902.321 289.665C902.321 289.601 902.359 289.868 902.363 289.697C902.375 289.168 902.36 288.644 902.373 288.126C902.403 286.941 902.503 286.519 902.445 284.709C902.437 284.479 902.321 284.829 902.326 283.017C902.328 282.295 902.326 279.098 902.334 278.202C902.341 277.307 902.379 277.921 902.381 277.858C902.431 275.446 902.451 276.361 902.525 275.152C902.599 273.944 902.423 274.279 902.404 273.787C902.384 273.293 902.425 271.525 902.44 271.091C902.454 270.657 902.478 271.198 902.486 270.812C902.539 268.252 902.399 269.688 902.371 268.845C902.305 266.856 902.435 265.306 902.448 263.486C902.451 262.993 902.422 263.395 902.419 262.956C902.408 261.219 902.449 260.174 902.412 258.197C902.406 257.873 902.328 256.275 902.385 255.241C902.393 255.094 902.426 255.511 902.433 254.77C902.444 253.664 902.451 251.671 902.44 250.482C902.432 249.604 902.379 250.61 902.395 249.505C902.403 249.014 902.434 249.924 902.445 249.001C902.456 248.083 902.455 245.737 902.454 244.844C902.453 243.952 902.412 244.44 902.41 244.368C902.394 243.932 902.375 242.222 902.375 242.071C902.37 234.446 902.438 227.414 902.415 219.99C902.414 219.408 902.371 219.796 902.37 219.707C902.352 217.712 902.466 219.285 902.504 217.892C902.417 218.093 902.433 217.271 902.423 215.866C902.419 215.189 902.385 215.557 902.382 215.496C902.331 214.492 902.397 213.793 902.41 213.613C902.46 212.948 902.401 212.224 902.434 211.771C902.467 211.319 902.516 212.36 902.515 211.013C902.484 210.635 902.403 211.635 902.39 210.612C902.34 206.752 902.404 199.547 902.41 196.444C902.417 193.347 902.411 192.346 902.422 190.542C902.443 187.282 902.383 188.476 902.355 186.452C902.328 184.422 902.476 185.409 902.507 185.117C902.539 184.831 902.506 184.518 902.524 184.161C902.541 183.806 902.563 184.575 902.57 183.74C902.576 182.904 902.52 180.619 902.486 180.322C902.416 179.696 902.342 180.726 902.368 178.514C902.369 178.387 902.408 178.8 902.412 178.313C902.442 174.444 902.444 170.426 902.471 166.562C902.474 166.031 902.518 166.506 902.52 166.196C902.548 162.976 902.475 164.127 902.394 162.362C902.502 162.759 902.568 161.782 902.568 159.338C902.569 157.869 902.522 158.122 902.488 157.172C902.478 156.887 902.511 155.847 902.489 155.659C902.416 155.037 902.335 156.017 902.367 153.497C902.369 153.386 902.409 153.738 902.411 153.356C902.427 150.887 902.351 150.592 902.342 147.922C902.335 145.83 902.381 142.109 902.388 139.727C902.51 139.777 902.482 137.527 902.398 136.614C902.402 135.068 902.397 133.398 902.408 131.904C902.412 131.39 902.447 131.727 902.451 131.663C902.511 130.668 902.429 129.996 902.426 129.662C902.395 126.046 902.457 123.099 902.397 119.647C902.394 119.524 902.31 119.326 902.372 118.403C902.376 118.344 902.414 119.483 902.417 117.86C902.42 116.236 902.465 113.174 902.426 110.92C902.417 110.374 902.349 108.994 902.402 107.887C902.409 107.739 902.433 107.901 902.447 107.688C902.49 106.999 902.405 106.623 902.477 105.814C902.549 105.004 902.603 103.321 902.553 101.047C902.552 100.975 902.485 100.437 902.486 99.7216C902.487 98.5802 902.501 96.9599 902.501 95.7679C902.501 95.1972 902.459 95.5626 902.458 95.4635C902.435 91.6266 902.472 88.8957 902.488 84.7852C902.491 84.0317 902.434 81.8664 902.479 80.4076C902.529 78.8059 902.734 80.4518 902.685 76.7701C902.666 75.2851 902.405 73.4052 902.54 70.7366C902.507 65.561 902.576 60.7747 902.528 55.5846C902.526 55.3513 902.453 54.6132 902.454 54.0646C902.456 53.25 902.49 52.8028 902.492 52.2212C902.502 49.7839 902.473 47.5538 902.477 45.2039C902.479 44.3118 902.514 44.6237 902.516 43.5597C902.518 42.4963 902.472 41.7871 902.494 40.3461C902.511 39.2578 902.606 38.1697 902.617 36.725C902.524 36.67 902.526 35.6778 902.501 33.9144C902.496 33.5754 902.464 33.939 902.46 33.7785C902.443 33.1261 902.47 32.522 902.452 31.9024C902.447 31.7516 902.415 31.7446 902.41 31.6213C902.363 30.5734 902.435 28.8472 902.447 28.5507C902.495 27.4143 902.453 26.8833 902.472 26.0117C902.491 25.1415 902.514 26.4426 902.525 25.4262C902.549 23.3191 902.544 20.6119 902.545 18.4721C902.545 17.6182 902.503 18.2008 902.502 18.0786C902.491 16.3131 902.536 14.5277 902.452 13.5487C902.671 12.3246 902.43 12.484 902.474 9.96038C902.478 9.76162 902.582 9.50866 902.597 10.2719C902.612 11.035 902.58 12.1923 902.603 13.2512C902.609 13.5021 902.706 14.9383 902.712 15.1344C902.758 16.6696 902.603 16.8871 902.594 16.9683C902.503 17.8893 902.607 19.6447 902.615 20.1069C902.648 22.2216 902.626 24.0181 902.65 25.7869C902.665 26.9436 902.766 27.0568 902.763 27.9651C902.753 30.9847 902.611 32.0386 902.734 34.884C902.76 35.4942 902.871 34.8879 902.784 37.074C902.779 37.2113 902.699 38.8345 902.749 39.7723C902.756 39.89 902.788 39.8864 902.791 40.0416C902.808 41.0827 902.783 41.7768 902.795 42.9109C902.807 44.0448 902.826 45.4083 902.815 46.7029C902.808 47.4832 902.748 48.4844 902.733 48.8578C902.691 49.9125 902.76 51.0431 902.709 51.6966C902.657 52.3555 902.578 51.0672 902.545 52.7951C902.629 52.859 902.715 53.0061 902.8 53.1089C902.797 56.8952 902.77 60.6207 902.773 64.4195C902.774 64.8905 902.819 64.4088 902.821 64.9137C902.828 67.044 902.796 68.9046 902.809 71.1137C902.819 72.8236 902.867 74.6987 902.879 76.4867C902.783 77.5789 902.815 80.2321 902.806 82.1596C902.803 82.8348 902.778 82.7896 902.769 83.2698C902.738 85.0812 902.823 84.2325 902.837 84.729C902.894 86.8598 902.701 87.042 902.706 89.554C902.706 89.687 902.809 91.3139 902.815 91.5379C902.857 92.9615 902.78 91.7736 902.772 92.6645C902.758 94.2913 902.734 95.4217 902.764 97.3302C902.773 97.8868 902.837 99.2217 902.787 100.302C902.781 100.445 902.747 100.366 902.745 100.481C902.712 102.552 902.818 102.606 902.854 103.79C902.89 104.974 902.817 106.802 902.796 107.175C902.741 108.148 902.772 106.429 902.767 106.376C902.703 105.757 902.714 107.09 902.708 108.109C902.604 108.257 902.61 109.682 902.703 109.166C902.713 109.107 902.704 108.314 902.708 108.109C902.811 109.004 902.824 110.57 902.728 112.299C902.683 113.109 902.631 112.344 902.65 114.803C902.659 115.92 902.731 115.488 902.75 116.473C902.795 118.724 902.728 121.648 902.738 123.968C902.742 124.81 902.782 123.99 902.786 124.566C902.796 126.093 902.767 127.44 902.782 128.974C902.783 129.113 902.825 128.773 902.825 129.25C902.83 132.866 902.803 136.015 902.803 139.79C902.802 141.614 902.825 144.876 902.821 146.765C902.813 150.041 902.753 154.069 902.768 156.867C902.777 158.692 902.818 158.292 902.846 159.074C902.901 160.583 902.803 163.253 902.788 163.613C902.787 163.624 902.778 162.054 902.757 162.892C902.713 163.379 902.788 163.595 902.788 163.613C902.778 163.849 902.769 166.986 902.777 167.609C902.781 167.947 902.82 167.758 902.822 167.934C902.857 172.129 902.866 176.331 902.848 180.585C902.847 180.66 902.804 180.547 902.802 180.723C902.783 183.186 902.836 184.763 902.868 186.794C902.9 188.825 902.889 190.436 902.814 191.638C902.824 193.17 902.791 195.369 902.77 196.634C902.75 197.899 902.835 198.075 902.837 198.187C902.891 201.659 902.842 203.665 902.835 207.267C902.831 208.98 902.843 212.377 902.852 214.231C902.86 215.696 902.84 216.579 902.853 217.929C902.854 218.112 902.892 217.927 902.894 217.983C902.939 219.49 902.847 218.766 902.83 219.077C902.77 220.205 902.738 220.902 902.766 222.832C902.773 223.277 902.906 224.573 902.914 225.385C902.924 226.44 902.876 226.041 902.887 227.146C902.888 227.24 902.918 227.221 902.917 227.902C902.911 231.067 902.894 234.517 902.897 237.805C902.897 238.255 902.944 237.679 902.945 238.328C902.95 241.373 902.949 244.711 902.927 247.678C902.921 248.408 902.889 247.95 902.879 248.109C902.82 249.082 902.905 250.462 902.907 250.69C902.948 256.122 902.871 260.279 902.908 265.816C902.91 266.118 903.001 268.437 902.923 269.472C902.918 269.543 902.837 270.567 902.892 271.473C902.896 271.529 902.937 270.891 902.933 272.004C902.929 273.118 902.956 274.91 902.911 276.44C902.896 276.925 902.816 278.07 902.88 279.516C902.885 279.61 903.029 281.841 902.929 282.638C902.913 282.767 902.808 282.632 902.862 284.357C902.872 284.687 902.896 284.088 902.91 284.957C902.933 286.287 902.905 288.05 902.952 289.686C902.96 289.971 903.032 291.185 902.977 292.159C902.969 292.312 902.934 292.022 902.93 292.536C902.911 294.982 902.934 297.543 902.91 300.027C902.901 300.906 902.844 300.457 902.829 301.373C902.814 302.291 902.799 304.138 902.825 305.098C902.851 306.057 902.942 305.009 902.949 306.447C902.981 312.697 902.928 318.889 902.92 325.131C902.919 326.056 902.951 325.289 902.952 326.653C902.954 331.683 902.985 340.366 902.916 344.73C902.86 348.227 902.818 343.827 902.796 346.499C902.785 347.788 902.891 349.183 902.894 349.495C902.928 352.535 902.881 354.649 902.895 357.386C902.898 357.951 902.941 357.396 902.943 357.877C902.95 359.52 902.931 361.247 902.935 362.817C902.936 363.522 902.969 363.392 902.967 364.04C902.961 365.591 902.947 366.962 902.917 368.474C902.914 368.612 902.873 367.682 902.872 368.83C902.869 370.687 902.839 372.992 902.87 375.128C902.88 375.762 902.954 375.787 902.903 377.149C902.892 377.435 902.802 377.07 902.88 378.658C902.893 378.925 902.997 381.591 902.93 382.899C902.912 383.245 902.839 384.126 902.85 384.888C902.852 384.991 902.892 384.577 902.896 385.209C902.909 387.435 902.905 389.768 902.918 392.055C902.921 392.666 902.962 391.756 902.966 392.667C902.977 395.17 902.966 398.295 902.953 400.743C902.948 401.645 902.914 401.021 902.91 401.087C902.849 402.143 902.931 402.767 902.936 403.118C902.965 405.297 902.926 406.957 902.937 408.966C902.939 409.521 902.978 409.127 902.982 409.238C903.016 410.383 902.946 409.53 902.938 410.254C902.916 412.284 902.919 414.547 902.924 416.599C902.926 417.353 902.971 416.506 902.973 417.183C902.98 421.187 902.976 425.351 902.951 429.259C902.946 429.995 902.911 429.532 902.903 429.685C902.848 430.743 902.924 432.292 902.931 432.648C902.964 434.269 902.933 434.899 902.939 436.33C902.968 443.323 902.947 451.957 902.935 458.558C902.918 467.16 902.885 473.834 902.894 482.037C902.894 482.558 902.941 482.032 902.942 482.482C902.953 488.284 902.935 493.996 902.948 499.809C902.949 500.287 902.993 499.599 902.996 500.365C903.003 501.935 903.001 503.925 902.987 505.513C902.98 506.287 902.942 505.248 902.936 506.028C902.922 507.843 902.919 509.789 902.926 511.654C902.929 512.448 902.974 511.25 902.974 512.282C902.979 519.308 902.987 526.208 902.928 533.308C902.924 533.795 902.833 534.222 902.85 535.257C902.876 535.335 902.906 535.33 902.933 535.365C902.947 545.593 902.916 555.716 902.911 565.973C902.911 566.405 902.959 565.658 902.959 566.495C902.958 571.341 902.972 576.046 902.923 581.003C902.919 581.495 902.833 581.242 902.846 582.692C902.849 582.947 902.86 585.13 902.878 585.694C902.881 585.771 902.921 585.373 902.922 586.076C902.928 590.164 902.919 594.447 902.895 598.527C902.891 599.186 902.848 598.485 902.845 598.954C902.823 602.281 902.855 605.9 902.816 609.079C902.79 611.207 902.717 610.419 902.645 611.55C902.635 611.71 902.633 613.028 902.591 613.096C902.485 613.271 902.37 612.633 902.257 612.895C902.233 612.95 902.259 614.715 902.2 613.67C902.196 613.597 902.177 612.317 902.157 612.002C902.143 611.783 902.1 612.178 902.083 611.731C902.065 611.283 902.101 610.791 902.08 610.049C902.059 609.307 902.011 609.633 902.005 608.152ZM902.681 202.33C902.64 203.501 902.789 203.674 902.753 202.407C902.752 202.346 902.683 202.27 902.681 202.33ZM902.657 60.5994C902.591 62.1308 902.688 63.1788 902.739 62.0984C902.79 61.0182 902.677 60.1328 902.657 60.5994ZM902.609 44.7191C902.557 46.509 902.769 46.7906 902.726 44.8736C902.724 44.7623 902.612 44.6144 902.609 44.7191ZM902.624 606.306C902.622 606.322 902.62 607.269 902.622 607.292C902.67 607.796 902.674 605.902 902.624 606.306ZM902.556 28.9606C902.528 29.5193 902.561 31.128 902.596 30.4338C902.625 29.8749 902.592 28.2647 902.556 28.9606ZM902.521 263.436C902.519 263.455 902.517 264.134 902.529 264.12C902.57 264.074 902.558 263.129 902.521 263.436ZM902.554 2.17717C902.546 6.13437 902.371 8.53354 902.391 4.22431C902.394 3.44388 902.446 5.90613 902.462 4.91289C902.491 3.0955 902.381 1.88855 902.44 0.0340721C902.451 -0.301789 902.555 1.95148 902.554 2.1842C902.554 2.18182 902.554 2.17961 902.554 2.17717ZM902.501 203.005C902.499 203.028 902.497 203.968 902.499 203.991C902.547 204.5 902.55 202.606 902.501 203.005ZM902.428 303.065C902.424 303.116 902.42 305.298 902.424 305.369C902.502 306.507 902.51 302.097 902.428 303.065ZM902.391 139.689C902.344 138.664 902.338 137.436 902.398 136.619C902.395 137.638 902.394 138.664 902.391 139.689Z" fill="#D6D6D6"/>
<path d="M1284.01 608.152C1283.99 604.711 1284.01 600.201 1284.03 596.773C1284.03 595.699 1284.06 596.243 1284.06 595.501C1284.07 594.051 1284.06 592.7 1284.07 591.266C1284.08 590.792 1284.12 591.383 1284.12 590.885C1284.14 588.155 1284.13 585.573 1284.14 582.809C1284.18 569.19 1284.2 555.804 1284.22 542.019C1284.22 537.474 1284.26 531.948 1284.25 527.253C1284.24 526.705 1284.21 527.032 1284.2 526.928C1284.16 525.292 1284.23 525.836 1284.24 524.768C1284.28 520.53 1284.28 515.817 1284.27 511.738C1284.26 510.003 1284.19 511.743 1284.23 509.996C1284.23 509.874 1284.27 510.315 1284.28 509.839C1284.29 508.76 1284.28 506.712 1284.28 505.876C1284.29 504.264 1284.29 503.997 1284.29 502.473C1284.29 500.388 1284.31 497.909 1284.3 495.673C1284.3 495.196 1284.26 495.828 1284.25 495.066C1284.24 494.305 1284.25 492.289 1284.26 491.609C1284.27 490.93 1284.3 491.219 1284.31 491.099C1284.37 490.109 1284.28 487.778 1284.28 487.478C1284.24 482.008 1284.29 477.317 1284.29 472.183C1284.29 468.285 1284.28 464.117 1284.28 460.409C1284.28 455.99 1284.3 452.245 1284.3 447.953C1284.3 447.5 1284.25 448.03 1284.25 447.477C1284.25 441.599 1284.25 435.761 1284.28 429.908C1284.29 429.321 1284.33 430.077 1284.33 429.491C1284.37 425.9 1284.45 420.219 1284.27 418.087C1284.28 415.655 1284.28 412.702 1284.32 410.526C1284.34 409.123 1284.39 410.486 1284.37 408.762C1284.36 408.374 1284.32 408.879 1284.32 408.296C1284.31 405.842 1284.32 403.161 1284.3 400.733C1284.3 400.239 1284.26 400.374 1284.25 400.234C1284.2 399.058 1284.29 397.101 1284.29 396.674C1284.34 393.425 1284.32 391.052 1284.32 388.024C1284.32 387.322 1284.28 388.152 1284.27 387.476C1284.27 383.97 1284.27 380.339 1284.29 376.906C1284.3 376.142 1284.34 376.844 1284.34 376.479C1284.36 374.87 1284.28 374.514 1284.3 372.971C1284.3 372.645 1284.34 372.829 1284.34 372.769C1284.4 371.841 1284.32 371.034 1284.32 370.795C1284.29 367.773 1284.38 365.842 1284.37 362.923C1284.36 362.573 1284.32 363.361 1284.32 362.379C1284.31 355.839 1284.32 348.923 1284.35 342.449C1284.36 341.443 1284.39 342.161 1284.4 342.098C1284.46 341.066 1284.37 340.398 1284.37 340.069C1284.35 337.48 1284.42 335.062 1284.32 333.303C1284.35 322.338 1284.3 311.423 1284.39 300.549C1284.39 300.411 1284.43 300.659 1284.43 300.383C1284.46 297.061 1284.39 297.699 1284.31 295.501C1284.29 294.948 1284.39 293.264 1284.39 293.115C1284.42 292.572 1284.48 293.135 1284.49 292.953C1284.53 291.449 1284.32 291.694 1284.32 289.665C1284.32 289.601 1284.36 289.868 1284.36 289.697C1284.37 289.168 1284.36 288.644 1284.37 288.126C1284.4 286.941 1284.5 286.519 1284.45 284.709C1284.44 284.479 1284.32 284.829 1284.33 283.017C1284.33 282.295 1284.33 279.098 1284.33 278.202C1284.34 277.307 1284.38 277.921 1284.38 277.858C1284.43 275.446 1284.45 276.361 1284.53 275.152C1284.6 273.944 1284.42 274.279 1284.4 273.787C1284.38 273.293 1284.43 271.525 1284.44 271.091C1284.45 270.657 1284.48 271.198 1284.49 270.812C1284.54 268.252 1284.4 269.688 1284.37 268.845C1284.31 266.856 1284.44 265.306 1284.45 263.486C1284.45 262.993 1284.42 263.395 1284.42 262.956C1284.41 261.219 1284.45 260.174 1284.41 258.197C1284.41 257.873 1284.33 256.275 1284.38 255.241C1284.39 255.094 1284.43 255.511 1284.43 254.77C1284.44 253.664 1284.45 251.671 1284.44 250.482C1284.43 249.604 1284.38 250.61 1284.4 249.505C1284.4 249.014 1284.43 249.924 1284.45 249.001C1284.46 248.083 1284.46 245.737 1284.45 244.844C1284.45 243.952 1284.41 244.44 1284.41 244.368C1284.39 243.932 1284.37 242.222 1284.37 242.071C1284.37 234.446 1284.44 227.414 1284.42 219.99C1284.41 219.408 1284.37 219.796 1284.37 219.707C1284.35 217.712 1284.47 219.285 1284.5 217.892C1284.42 218.093 1284.43 217.271 1284.42 215.866C1284.42 215.189 1284.39 215.557 1284.38 215.496C1284.33 214.492 1284.4 213.793 1284.41 213.613C1284.46 212.948 1284.4 212.224 1284.43 211.771C1284.47 211.319 1284.52 212.36 1284.52 211.013C1284.48 210.635 1284.4 211.635 1284.39 210.612C1284.34 206.752 1284.4 199.547 1284.41 196.444C1284.42 193.347 1284.41 192.346 1284.42 190.542C1284.44 187.282 1284.38 188.476 1284.36 186.452C1284.33 184.422 1284.48 185.409 1284.51 185.117C1284.54 184.831 1284.51 184.518 1284.52 184.161C1284.54 183.806 1284.56 184.575 1284.57 183.74C1284.58 182.904 1284.52 180.619 1284.49 180.322C1284.42 179.696 1284.34 180.726 1284.37 178.514C1284.37 178.387 1284.41 178.8 1284.41 178.313C1284.44 174.444 1284.44 170.426 1284.47 166.562C1284.47 166.031 1284.52 166.506 1284.52 166.196C1284.55 162.976 1284.47 164.127 1284.39 162.362C1284.5 162.759 1284.57 161.782 1284.57 159.338C1284.57 157.869 1284.52 158.122 1284.49 157.172C1284.48 156.887 1284.51 155.847 1284.49 155.659C1284.42 155.037 1284.34 156.017 1284.37 153.497C1284.37 153.386 1284.41 153.738 1284.41 153.356C1284.43 150.887 1284.35 150.592 1284.34 147.922C1284.33 145.83 1284.38 142.109 1284.39 139.727C1284.51 139.777 1284.48 137.527 1284.4 136.614C1284.4 135.068 1284.4 133.398 1284.41 131.904C1284.41 131.39 1284.45 131.727 1284.45 131.663C1284.51 130.668 1284.43 129.996 1284.43 129.662C1284.4 126.046 1284.46 123.099 1284.4 119.647C1284.39 119.524 1284.31 119.326 1284.37 118.403C1284.38 118.344 1284.41 119.483 1284.42 117.86C1284.42 116.236 1284.47 113.174 1284.43 110.92C1284.42 110.374 1284.35 108.994 1284.4 107.887C1284.41 107.739 1284.43 107.901 1284.45 107.688C1284.49 106.999 1284.4 106.623 1284.48 105.814C1284.55 105.004 1284.6 103.321 1284.55 101.047C1284.55 100.975 1284.48 100.437 1284.49 99.7216C1284.49 98.5802 1284.5 96.9599 1284.5 95.7679C1284.5 95.1972 1284.46 95.5626 1284.46 95.4635C1284.43 91.6266 1284.47 88.8957 1284.49 84.7852C1284.49 84.0317 1284.43 81.8664 1284.48 80.4076C1284.53 78.8059 1284.73 80.4518 1284.69 76.7701C1284.67 75.2851 1284.4 73.4052 1284.54 70.7366C1284.51 65.561 1284.58 60.7747 1284.53 55.5846C1284.53 55.3513 1284.45 54.6132 1284.45 54.0646C1284.46 53.25 1284.49 52.8028 1284.49 52.2212C1284.5 49.7839 1284.47 47.5538 1284.48 45.2039C1284.48 44.3118 1284.51 44.6237 1284.52 43.5597C1284.52 42.4963 1284.47 41.7871 1284.49 40.3461C1284.51 39.2578 1284.61 38.1697 1284.62 36.725C1284.52 36.67 1284.53 35.6778 1284.5 33.9144C1284.5 33.5754 1284.46 33.939 1284.46 33.7785C1284.44 33.1261 1284.47 32.522 1284.45 31.9024C1284.45 31.7516 1284.42 31.7446 1284.41 31.6213C1284.36 30.5734 1284.43 28.8472 1284.45 28.5507C1284.49 27.4143 1284.45 26.8833 1284.47 26.0117C1284.49 25.1415 1284.51 26.4426 1284.53 25.4262C1284.55 23.3191 1284.54 20.6119 1284.55 18.4721C1284.55 17.6182 1284.5 18.2008 1284.5 18.0786C1284.49 16.3131 1284.54 14.5277 1284.45 13.5487C1284.67 12.3246 1284.43 12.484 1284.47 9.96038C1284.48 9.76162 1284.58 9.50866 1284.6 10.2719C1284.61 11.035 1284.58 12.1923 1284.6 13.2512C1284.61 13.5021 1284.71 14.9383 1284.71 15.1344C1284.76 16.6696 1284.6 16.8871 1284.59 16.9683C1284.5 17.8893 1284.61 19.6447 1284.61 20.1069C1284.65 22.2216 1284.63 24.0181 1284.65 25.7869C1284.66 26.9436 1284.77 27.0568 1284.76 27.9651C1284.75 30.9847 1284.61 32.0386 1284.73 34.884C1284.76 35.4942 1284.87 34.8879 1284.78 37.074C1284.78 37.2113 1284.7 38.8345 1284.75 39.7723C1284.76 39.89 1284.79 39.8864 1284.79 40.0416C1284.81 41.0827 1284.78 41.7768 1284.79 42.9109C1284.81 44.0448 1284.83 45.4083 1284.81 46.7029C1284.81 47.4832 1284.75 48.4844 1284.73 48.8578C1284.69 49.9125 1284.76 51.0431 1284.71 51.6966C1284.66 52.3555 1284.58 51.0672 1284.54 52.7951C1284.63 52.859 1284.72 53.0061 1284.8 53.1089C1284.8 56.8952 1284.77 60.6207 1284.77 64.4195C1284.77 64.8905 1284.82 64.4088 1284.82 64.9137C1284.83 67.044 1284.8 68.9046 1284.81 71.1137C1284.82 72.8236 1284.87 74.6987 1284.88 76.4867C1284.78 77.5789 1284.82 80.2321 1284.81 82.1596C1284.8 82.8348 1284.78 82.7896 1284.77 83.2698C1284.74 85.0812 1284.82 84.2325 1284.84 84.729C1284.89 86.8598 1284.7 87.042 1284.71 89.554C1284.71 89.687 1284.81 91.3139 1284.82 91.5379C1284.86 92.9615 1284.78 91.7736 1284.77 92.6645C1284.76 94.2913 1284.73 95.4217 1284.76 97.3302C1284.77 97.8868 1284.84 99.2217 1284.79 100.302C1284.78 100.445 1284.75 100.366 1284.74 100.481C1284.71 102.552 1284.82 102.606 1284.85 103.79C1284.89 104.974 1284.82 106.802 1284.8 107.175C1284.74 108.148 1284.77 106.429 1284.77 106.376C1284.7 105.757 1284.71 107.09 1284.71 108.109C1284.6 108.257 1284.61 109.682 1284.7 109.166C1284.71 109.107 1284.7 108.314 1284.71 108.109C1284.81 109.004 1284.82 110.57 1284.73 112.299C1284.68 113.109 1284.63 112.344 1284.65 114.803C1284.66 115.92 1284.73 115.488 1284.75 116.473C1284.79 118.724 1284.73 121.648 1284.74 123.968C1284.74 124.81 1284.78 123.99 1284.79 124.566C1284.8 126.093 1284.77 127.44 1284.78 128.974C1284.78 129.113 1284.82 128.773 1284.83 129.25C1284.83 132.866 1284.8 136.015 1284.8 139.79C1284.8 141.614 1284.83 144.876 1284.82 146.765C1284.81 150.041 1284.75 154.069 1284.77 156.867C1284.78 158.692 1284.82 158.292 1284.85 159.074C1284.9 160.583 1284.8 163.253 1284.79 163.613C1284.79 163.624 1284.78 162.054 1284.76 162.892C1284.71 163.379 1284.79 163.595 1284.79 163.613C1284.78 163.849 1284.77 166.986 1284.78 167.609C1284.78 167.947 1284.82 167.758 1284.82 167.934C1284.86 172.129 1284.87 176.331 1284.85 180.585C1284.85 180.66 1284.8 180.547 1284.8 180.723C1284.78 183.186 1284.84 184.763 1284.87 186.794C1284.9 188.825 1284.89 190.436 1284.81 191.638C1284.82 193.17 1284.79 195.369 1284.77 196.634C1284.75 197.899 1284.84 198.075 1284.84 198.187C1284.89 201.659 1284.84 203.665 1284.83 207.267C1284.83 208.98 1284.84 212.377 1284.85 214.231C1284.86 215.696 1284.84 216.579 1284.85 217.929C1284.85 218.112 1284.89 217.927 1284.89 217.983C1284.94 219.49 1284.85 218.766 1284.83 219.077C1284.77 220.205 1284.74 220.902 1284.77 222.832C1284.77 223.277 1284.91 224.573 1284.91 225.385C1284.92 226.44 1284.88 226.041 1284.89 227.146C1284.89 227.24 1284.92 227.221 1284.92 227.902C1284.91 231.067 1284.89 234.517 1284.9 237.805C1284.9 238.255 1284.94 237.679 1284.94 238.328C1284.95 241.373 1284.95 244.711 1284.93 247.678C1284.92 248.408 1284.89 247.95 1284.88 248.109C1284.82 249.082 1284.91 250.462 1284.91 250.69C1284.95 256.122 1284.87 260.279 1284.91 265.816C1284.91 266.118 1285 268.437 1284.92 269.472C1284.92 269.543 1284.84 270.567 1284.89 271.473C1284.9 271.529 1284.94 270.891 1284.93 272.004C1284.93 273.118 1284.96 274.91 1284.91 276.44C1284.9 276.925 1284.82 278.07 1284.88 279.516C1284.88 279.61 1285.03 281.841 1284.93 282.638C1284.91 282.767 1284.81 282.632 1284.86 284.357C1284.87 284.687 1284.9 284.088 1284.91 284.957C1284.93 286.287 1284.9 288.05 1284.95 289.686C1284.96 289.971 1285.03 291.185 1284.98 292.159C1284.97 292.312 1284.93 292.022 1284.93 292.536C1284.91 294.982 1284.93 297.543 1284.91 300.027C1284.9 300.906 1284.84 300.457 1284.83 301.373C1284.81 302.291 1284.8 304.138 1284.83 305.098C1284.85 306.057 1284.94 305.009 1284.95 306.447C1284.98 312.697 1284.93 318.889 1284.92 325.131C1284.92 326.056 1284.95 325.289 1284.95 326.653C1284.95 331.683 1284.98 340.366 1284.92 344.73C1284.86 348.227 1284.82 343.827 1284.8 346.499C1284.79 347.788 1284.89 349.183 1284.89 349.495C1284.93 352.535 1284.88 354.649 1284.9 357.386C1284.9 357.951 1284.94 357.396 1284.94 357.877C1284.95 359.52 1284.93 361.247 1284.93 362.817C1284.94 363.522 1284.97 363.392 1284.97 364.04C1284.96 365.591 1284.95 366.962 1284.92 368.474C1284.91 368.612 1284.87 367.682 1284.87 368.83C1284.87 370.687 1284.84 372.992 1284.87 375.128C1284.88 375.762 1284.95 375.787 1284.9 377.149C1284.89 377.435 1284.8 377.07 1284.88 378.658C1284.89 378.925 1285 381.591 1284.93 382.899C1284.91 383.245 1284.84 384.126 1284.85 384.888C1284.85 384.991 1284.89 384.577 1284.9 385.209C1284.91 387.435 1284.9 389.768 1284.92 392.055C1284.92 392.666 1284.96 391.756 1284.97 392.667C1284.98 395.17 1284.97 398.295 1284.95 400.743C1284.95 401.645 1284.91 401.021 1284.91 401.087C1284.85 402.143 1284.93 402.767 1284.94 403.118C1284.96 405.297 1284.93 406.957 1284.94 408.966C1284.94 409.521 1284.98 409.127 1284.98 409.238C1285.02 410.383 1284.95 409.53 1284.94 410.254C1284.92 412.284 1284.92 414.547 1284.92 416.599C1284.93 417.353 1284.97 416.506 1284.97 417.183C1284.98 421.187 1284.98 425.351 1284.95 429.259C1284.95 429.995 1284.91 429.532 1284.9 429.685C1284.85 430.743 1284.92 432.292 1284.93 432.648C1284.96 434.269 1284.93 434.899 1284.94 436.33C1284.97 443.323 1284.95 451.957 1284.93 458.558C1284.92 467.16 1284.89 473.834 1284.89 482.037C1284.89 482.558 1284.94 482.032 1284.94 482.482C1284.95 488.284 1284.93 493.996 1284.95 499.809C1284.95 500.287 1284.99 499.599 1285 500.365C1285 501.935 1285 503.925 1284.99 505.513C1284.98 506.287 1284.94 505.248 1284.94 506.028C1284.92 507.843 1284.92 509.789 1284.93 511.654C1284.93 512.448 1284.97 511.25 1284.97 512.282C1284.98 519.308 1284.99 526.208 1284.93 533.308C1284.92 533.795 1284.83 534.222 1284.85 535.257C1284.88 535.335 1284.91 535.33 1284.93 535.365C1284.95 545.593 1284.92 555.716 1284.91 565.973C1284.91 566.405 1284.96 565.658 1284.96 566.495C1284.96 571.341 1284.97 576.046 1284.92 581.003C1284.92 581.495 1284.83 581.242 1284.85 582.692C1284.85 582.947 1284.86 585.13 1284.88 585.694C1284.88 585.771 1284.92 585.373 1284.92 586.076C1284.93 590.164 1284.92 594.447 1284.89 598.527C1284.89 599.186 1284.85 598.485 1284.85 598.954C1284.82 602.281 1284.85 605.9 1284.82 609.079C1284.79 611.207 1284.72 610.419 1284.64 611.55C1284.63 611.71 1284.63 613.028 1284.59 613.096C1284.49 613.271 1284.37 612.633 1284.26 612.895C1284.23 612.95 1284.26 614.715 1284.2 613.67C1284.2 613.597 1284.18 612.317 1284.16 612.002C1284.14 611.783 1284.1 612.178 1284.08 611.731C1284.07 611.283 1284.1 610.791 1284.08 610.049C1284.06 609.307 1284.01 609.633 1284.01 608.152ZM1284.68 202.33C1284.64 203.501 1284.79 203.674 1284.75 202.407C1284.75 202.346 1284.68 202.27 1284.68 202.33ZM1284.66 60.5994C1284.59 62.1308 1284.69 63.1788 1284.74 62.0984C1284.79 61.0182 1284.68 60.1328 1284.66 60.5994ZM1284.61 44.7191C1284.56 46.509 1284.77 46.7906 1284.73 44.8736C1284.72 44.7623 1284.61 44.6144 1284.61 44.7191ZM1284.62 606.306C1284.62 606.322 1284.62 607.269 1284.62 607.292C1284.67 607.796 1284.67 605.902 1284.62 606.306ZM1284.56 28.9606C1284.53 29.5193 1284.56 31.128 1284.6 30.4338C1284.63 29.8749 1284.59 28.2647 1284.56 28.9606ZM1284.52 263.436C1284.52 263.455 1284.52 264.134 1284.53 264.12C1284.57 264.074 1284.56 263.129 1284.52 263.436ZM1284.55 2.17717C1284.55 6.13437 1284.37 8.53354 1284.39 4.22431C1284.39 3.44388 1284.45 5.90613 1284.46 4.91289C1284.49 3.0955 1284.38 1.88855 1284.44 0.0340721C1284.45 -0.301789 1284.55 1.95148 1284.55 2.1842C1284.55 2.18182 1284.55 2.17961 1284.55 2.17717ZM1284.5 203.005C1284.5 203.028 1284.5 203.968 1284.5 203.991C1284.55 204.5 1284.55 202.606 1284.5 203.005ZM1284.43 303.065C1284.42 303.116 1284.42 305.298 1284.42 305.369C1284.5 306.507 1284.51 302.097 1284.43 303.065ZM1284.39 139.689C1284.34 138.664 1284.34 137.436 1284.4 136.619C1284.39 137.638 1284.39 138.664 1284.39 139.689Z" fill="#D6D6D6"/>
<path d="M1420.28 307.995C1412.21 308.008 1401.64 307.994 1393.6 307.975C1391.08 307.969 1392.35 307.942 1390.62 307.937C1387.21 307.927 1384.04 307.94 1380.68 307.928C1379.57 307.923 1380.96 307.881 1379.79 307.878C1373.39 307.859 1367.33 307.87 1360.85 307.861C1328.91 307.817 1297.51 307.801 1265.18 307.782C1254.52 307.776 1241.57 307.738 1230.56 307.755C1229.27 307.757 1230.04 307.793 1229.79 307.796C1225.96 307.843 1227.23 307.769 1224.73 307.759C1214.79 307.72 1203.73 307.716 1194.17 307.73C1190.1 307.737 1194.18 307.81 1190.08 307.769C1189.8 307.766 1190.83 307.727 1189.71 307.723C1187.18 307.713 1182.38 307.72 1180.42 307.717C1176.64 307.711 1176.01 307.711 1172.44 307.711C1167.55 307.71 1161.74 307.691 1156.49 307.699C1155.37 307.701 1156.85 307.742 1155.07 307.748C1153.28 307.755 1148.55 307.752 1146.96 307.742C1145.37 307.733 1146.04 307.701 1145.76 307.694C1143.44 307.633 1137.97 307.718 1137.27 307.72C1124.44 307.755 1113.44 307.707 1101.4 307.707C1092.26 307.707 1082.48 307.723 1073.79 307.721C1063.42 307.718 1054.64 307.697 1044.57 307.7C1043.51 307.701 1044.76 307.748 1043.46 307.748C1029.67 307.754 1015.98 307.749 1002.25 307.717C1000.88 307.714 1002.65 307.672 1001.28 307.667C992.855 307.633 979.531 307.551 974.529 307.731C968.825 307.724 961.9 307.717 956.797 307.68C953.507 307.657 956.703 307.612 952.661 307.631C951.749 307.635 952.935 307.675 951.568 307.678C945.812 307.693 939.524 307.68 933.83 307.7C932.672 307.705 932.988 307.74 932.66 307.747C929.902 307.798 925.311 307.713 924.311 307.707C916.69 307.66 911.124 307.679 904.024 307.677C902.377 307.677 904.324 307.725 902.739 307.726C894.517 307.733 885.999 307.729 877.948 307.708C876.157 307.703 877.804 307.662 876.948 307.658C873.175 307.639 872.339 307.716 868.72 307.699C867.957 307.696 868.387 307.661 868.247 307.657C866.069 307.598 864.177 307.682 863.617 307.684C856.53 307.71 852 307.621 845.154 307.634C844.335 307.635 846.182 307.679 843.88 307.681C828.542 307.693 812.32 307.681 797.138 307.646C794.778 307.641 796.463 307.608 796.314 307.604C793.893 307.54 792.327 307.625 791.557 307.628C785.485 307.651 779.813 307.58 775.687 307.681C749.972 307.646 724.374 307.703 698.871 307.612C698.547 307.611 699.127 307.569 698.481 307.568C690.691 307.544 692.187 307.609 687.033 307.689C685.735 307.709 681.785 307.613 681.435 307.606C680.162 307.58 681.483 307.517 681.056 307.512C677.528 307.473 678.103 307.679 673.344 307.679C673.195 307.679 673.82 307.641 673.421 307.637C672.18 307.625 670.949 307.64 669.735 307.627C666.956 307.597 665.966 307.497 661.72 307.555C661.183 307.563 662.003 307.679 657.754 307.674C656.06 307.672 648.562 307.674 646.46 307.666C644.361 307.658 645.802 307.621 645.653 307.619C639.997 307.569 642.142 307.549 639.308 307.475C636.475 307.401 637.261 307.577 636.106 307.596C634.949 307.616 630.802 307.575 629.783 307.56C628.765 307.546 630.035 307.522 629.129 307.514C623.124 307.461 626.494 307.601 624.515 307.629C619.85 307.695 616.217 307.565 611.947 307.552C610.791 307.549 611.734 307.578 610.705 307.581C606.63 307.592 604.179 307.551 599.543 307.588C598.785 307.594 595.037 307.672 592.611 307.615C592.267 307.607 593.243 307.574 591.507 307.567C588.912 307.556 584.238 307.549 581.449 307.56C579.39 307.568 581.75 307.621 579.158 307.605C578.006 307.597 580.141 307.566 577.977 307.555C575.824 307.544 570.321 307.545 568.227 307.546C566.136 307.547 567.28 307.588 567.111 307.59C566.089 307.606 562.077 307.625 561.723 307.625C543.84 307.63 527.349 307.562 509.938 307.585C508.572 307.586 509.482 307.629 509.274 307.63C504.596 307.648 508.284 307.534 505.017 307.496C505.489 307.583 503.56 307.567 500.265 307.577C498.677 307.581 499.542 307.615 499.397 307.618C497.042 307.669 495.403 307.603 494.981 307.59C493.421 307.54 491.724 307.599 490.663 307.566C489.602 307.533 492.043 307.484 488.883 307.485C487.997 307.516 490.343 307.597 487.944 307.61C478.892 307.66 461.994 307.596 454.716 307.59C447.452 307.583 445.105 307.589 440.873 307.577C433.227 307.557 436.029 307.617 431.282 307.645C426.52 307.672 428.835 307.524 428.151 307.493C427.479 307.461 426.745 307.494 425.909 307.476C425.076 307.459 426.88 307.437 424.921 307.43C422.96 307.424 417.601 307.48 416.906 307.514C415.437 307.584 417.852 307.658 412.665 307.632C412.367 307.631 413.335 307.592 412.193 307.588C403.12 307.558 393.695 307.556 384.634 307.529C383.388 307.526 384.502 307.482 383.777 307.48C376.224 307.452 378.923 307.525 374.784 307.606C375.714 307.498 373.425 307.432 367.693 307.432C364.247 307.431 364.84 307.478 362.611 307.512C361.943 307.522 359.505 307.489 359.063 307.511C357.606 307.584 359.903 307.665 353.993 307.633C353.733 307.631 354.559 307.591 353.663 307.589C347.872 307.573 347.179 307.649 340.919 307.658C336.012 307.665 327.285 307.619 321.698 307.612C321.816 307.49 316.539 307.518 314.398 307.602C310.772 307.598 306.855 307.603 303.351 307.592C302.145 307.588 302.937 307.553 302.785 307.549C300.453 307.489 298.876 307.571 298.094 307.574C289.612 307.605 282.701 307.543 274.605 307.603C274.318 307.606 273.852 307.69 271.688 307.628C271.548 307.624 274.222 307.586 270.414 307.583C266.605 307.58 259.425 307.535 254.138 307.574C252.858 307.583 249.622 307.651 247.024 307.598C246.678 307.591 247.057 307.567 246.557 307.553C244.942 307.51 244.061 307.595 242.163 307.523C240.265 307.451 236.316 307.397 230.984 307.447C230.814 307.448 229.552 307.515 227.875 307.514C225.198 307.513 221.397 307.499 218.602 307.499C217.264 307.499 218.121 307.541 217.888 307.542C208.889 307.565 202.485 307.528 192.845 307.512C191.078 307.509 185.999 307.566 182.578 307.521C178.822 307.471 182.682 307.266 174.047 307.315C170.565 307.334 166.155 307.595 159.897 307.46C147.759 307.493 136.533 307.424 124.361 307.472C123.814 307.474 122.083 307.547 120.796 307.546C118.886 307.544 117.838 307.51 116.473 307.508C110.757 307.498 105.527 307.527 100.016 307.523C97.9236 307.521 98.655 307.486 96.1595 307.484C93.6655 307.482 92.0024 307.528 88.6228 307.506C86.0706 307.489 83.5184 307.394 80.1304 307.383C80.0012 307.476 77.6743 307.474 73.5386 307.499C72.7435 307.504 73.5962 307.536 73.22 307.54C71.6895 307.557 70.2732 307.53 68.8199 307.548C68.4666 307.553 68.4495 307.585 68.1608 307.59C65.7032 307.637 61.6545 307.565 60.9592 307.553C58.2941 307.505 57.0487 307.547 55.0046 307.528C52.9636 307.509 56.0154 307.486 53.6313 307.475C48.6899 307.451 42.3405 307.456 37.3221 307.455C35.3196 307.455 36.6855 307.497 36.3993 307.498C32.2587 307.509 28.0713 307.464 25.7754 307.548C22.9045 307.329 23.2787 307.57 17.3599 307.526C16.8937 307.522 16.3007 307.418 18.0905 307.403C19.8802 307.388 22.5945 307.42 25.0778 307.397C25.6659 307.391 29.0348 307.294 29.4943 307.288C33.0947 307.242 33.605 307.397 33.7954 307.406C35.9557 307.497 40.0723 307.393 41.1564 307.385C46.1157 307.352 50.3293 307.374 54.4773 307.35C57.1902 307.335 57.4557 307.234 59.5859 307.237C66.6676 307.247 69.1395 307.389 75.8127 307.266C77.2435 307.24 75.8217 307.129 80.9489 307.216C81.2711 307.221 85.0775 307.301 87.277 307.251C87.5532 307.244 87.5444 307.212 87.9087 307.209C90.35 307.192 91.9784 307.217 94.6378 307.205C97.2974 307.193 100.495 307.174 103.531 307.185C105.361 307.192 107.709 307.252 108.585 307.267C111.058 307.309 113.711 307.24 115.243 307.291C116.788 307.343 113.767 307.422 117.819 307.455C117.969 307.371 118.314 307.285 118.555 307.2C127.435 307.203 136.172 307.23 145.082 307.227C146.186 307.226 145.057 307.181 146.241 307.179C151.236 307.172 155.6 307.204 160.781 307.191C164.792 307.181 169.189 307.133 173.383 307.121C175.944 307.217 182.167 307.185 186.687 307.194C188.27 307.197 188.165 307.222 189.291 307.231C193.539 307.262 191.548 307.177 192.713 307.163C197.71 307.106 198.138 307.299 204.029 307.294C204.341 307.294 208.156 307.191 208.682 307.185C212.021 307.143 209.234 307.22 211.324 307.228C215.139 307.242 217.79 307.266 222.266 307.236C223.571 307.227 226.703 307.163 229.237 307.213C229.571 307.219 229.386 307.253 229.655 307.255C234.513 307.288 234.64 307.182 237.417 307.146C240.193 307.11 244.481 307.183 245.354 307.204C247.637 307.259 243.604 307.228 243.481 307.233C242.028 307.297 245.156 307.286 247.546 307.292C247.892 307.396 251.234 307.39 250.023 307.297C249.885 307.287 248.026 307.296 247.546 307.292C249.644 307.189 253.317 307.176 257.373 307.272C259.272 307.317 257.477 307.369 263.245 307.35C265.863 307.341 264.852 307.269 267.162 307.25C272.44 307.205 279.299 307.272 284.74 307.262C286.715 307.258 284.791 307.218 286.141 307.214C289.723 307.204 292.882 307.233 296.479 307.218C296.805 307.217 296.009 307.175 297.127 307.175C305.608 307.17 312.992 307.197 321.847 307.197C326.125 307.198 333.773 307.175 338.205 307.179C345.886 307.187 355.335 307.247 361.897 307.232C366.177 307.223 365.238 307.182 367.072 307.154C370.61 307.099 376.874 307.197 377.718 307.212C377.743 307.213 374.061 307.222 376.026 307.243C377.168 307.287 377.676 307.212 377.718 307.212C378.271 307.222 385.628 307.231 387.089 307.223C387.883 307.219 387.439 307.18 387.853 307.178C397.69 307.143 407.544 307.134 417.521 307.152C417.697 307.153 417.432 307.196 417.845 307.198C423.621 307.217 427.32 307.164 432.084 307.132C436.847 307.1 440.624 307.111 443.444 307.186C447.037 307.176 452.193 307.209 455.16 307.23C458.128 307.25 458.541 307.165 458.802 307.163C466.945 307.109 471.652 307.158 480.1 307.165C484.116 307.169 492.082 307.157 496.431 307.148C499.867 307.14 501.938 307.16 505.104 307.147C505.533 307.145 505.1 307.108 505.231 307.106C508.765 307.061 507.066 307.153 507.796 307.17C510.441 307.23 512.076 307.262 516.602 307.234C517.645 307.227 520.686 307.094 522.589 307.086C525.063 307.076 524.13 307.124 526.72 307.113C526.942 307.112 526.896 307.082 528.494 307.083C535.916 307.089 544.007 307.106 551.719 307.103C552.773 307.103 551.422 307.056 552.944 307.055C560.087 307.05 567.915 307.051 574.873 307.073C576.586 307.079 575.512 307.111 575.884 307.121C578.167 307.18 581.404 307.095 581.938 307.093C594.677 307.052 604.427 307.129 617.412 307.092C618.119 307.09 623.56 306.999 625.987 307.077C626.153 307.082 628.555 307.163 630.678 307.108C630.81 307.104 629.314 307.063 631.925 307.067C634.537 307.071 638.74 307.044 642.329 307.089C643.466 307.104 646.152 307.184 649.542 307.12C649.763 307.115 654.996 306.971 656.864 307.071C657.167 307.087 656.85 307.192 660.896 307.138C661.669 307.128 660.266 307.104 662.303 307.09C665.423 307.067 669.557 307.095 673.393 307.048C674.062 307.04 676.91 306.968 679.194 307.023C679.552 307.031 678.872 307.066 680.078 307.07C685.815 307.089 691.821 307.066 697.646 307.09C699.709 307.099 698.654 307.156 700.804 307.171C702.955 307.186 707.288 307.201 709.538 307.175C711.789 307.149 709.33 307.058 712.703 307.051C727.362 307.019 741.884 307.072 756.522 307.08C758.693 307.081 756.893 307.049 760.092 307.048C771.888 307.046 792.253 307.015 802.488 307.084C810.689 307.14 800.369 307.182 806.636 307.204C809.66 307.215 812.932 307.109 813.662 307.106C820.793 307.072 825.749 307.119 832.168 307.105C833.494 307.102 832.194 307.059 833.322 307.057C837.175 307.05 841.225 307.069 844.907 307.065C846.559 307.064 846.254 307.031 847.774 307.033C851.411 307.039 854.627 307.053 858.173 307.083C858.496 307.086 856.317 307.127 859.008 307.128C863.363 307.131 868.768 307.161 873.779 307.13C875.266 307.12 875.324 307.046 878.52 307.097C879.19 307.108 878.335 307.198 882.057 307.12C882.683 307.107 888.936 307.003 892.005 307.07C892.815 307.088 894.881 307.161 896.669 307.15C896.911 307.148 895.94 307.108 897.422 307.104C902.643 307.091 908.114 307.095 913.478 307.082C914.91 307.079 912.777 307.038 914.912 307.034C920.782 307.023 928.112 307.034 933.852 307.047C935.969 307.052 934.506 307.086 934.66 307.09C937.136 307.151 938.6 307.068 939.422 307.064C944.534 307.035 948.427 307.074 953.139 307.063C954.439 307.061 953.517 307.022 953.776 307.018C956.461 306.984 954.461 307.054 956.16 307.062C960.92 307.084 966.227 307.081 971.041 307.076C972.809 307.074 970.822 307.029 972.409 307.027C981.801 307.02 991.565 307.024 1000.73 307.049C1002.46 307.054 1001.37 307.089 1001.73 307.097C1004.21 307.152 1007.84 307.076 1008.68 307.069C1012.48 307.036 1013.96 307.067 1017.32 307.061C1033.72 307.032 1053.97 307.053 1069.45 307.065C1089.62 307.082 1105.27 307.115 1124.51 307.106C1125.73 307.106 1124.5 307.059 1125.55 307.058C1139.16 307.047 1152.56 307.065 1166.19 307.052C1167.31 307.051 1165.7 307.007 1167.49 307.004C1171.18 306.997 1175.84 306.999 1179.57 307.013C1181.38 307.02 1178.95 307.058 1180.78 307.064C1185.03 307.078 1189.6 307.081 1193.97 307.074C1195.83 307.071 1193.02 307.026 1195.44 307.026C1211.92 307.021 1228.1 307.013 1244.76 307.072C1245.9 307.076 1246.9 307.167 1249.33 307.15C1249.51 307.124 1249.5 307.094 1249.58 307.067C1273.57 307.053 1297.31 307.084 1321.36 307.089C1322.38 307.089 1320.62 307.041 1322.59 307.041C1333.95 307.042 1344.99 307.028 1356.61 307.077C1357.77 307.081 1357.17 307.167 1360.57 307.154C1361.17 307.151 1366.29 307.14 1367.62 307.122C1367.8 307.119 1366.86 307.079 1368.51 307.078C1378.1 307.072 1388.14 307.081 1397.71 307.105C1399.26 307.109 1397.61 307.152 1398.71 307.155C1406.52 307.177 1415 307.145 1422.46 307.184C1427.45 307.21 1425.6 307.283 1428.25 307.355C1428.63 307.365 1431.72 307.367 1431.88 307.409C1432.29 307.515 1430.79 307.63 1431.41 307.743C1431.54 307.767 1435.68 307.741 1433.23 307.8C1433.05 307.804 1430.05 307.823 1429.31 307.843C1428.8 307.857 1429.73 307.9 1428.68 307.917C1427.63 307.935 1426.47 307.899 1424.73 307.92C1422.99 307.941 1423.76 307.989 1420.28 307.995ZM468.52 307.319C471.267 307.36 471.672 307.211 468.701 307.247C468.557 307.248 468.378 307.317 468.52 307.319ZM136.122 307.343C139.714 307.409 142.172 307.312 139.638 307.261C137.104 307.21 135.028 307.323 136.122 307.343ZM98.8787 307.391C103.076 307.443 103.737 307.231 99.2412 307.274C98.9797 307.276 98.6331 307.388 98.8787 307.391ZM1415.96 307.376C1415.99 307.378 1418.21 307.38 1418.27 307.378C1419.45 307.33 1415.01 307.326 1415.96 307.376ZM61.9205 307.444C63.231 307.472 67.0038 307.439 65.3757 307.404C64.0649 307.375 60.2885 307.408 61.9205 307.444ZM611.831 307.479C611.875 307.481 613.468 307.483 613.435 307.471C613.327 307.43 611.111 307.442 611.831 307.479ZM-0.893921 307.446C8.3866 307.454 14.0134 307.629 3.9071 307.609C2.07715 307.606 7.85144 307.554 5.52209 307.538C1.25964 307.509 -1.57056 307.619 -5.92017 307.56C-6.7074 307.549 -1.42334 307.445 -0.877441 307.446C-0.882935 307.446 -0.888428 307.446 -0.893921 307.446ZM470.102 307.499C470.157 307.501 472.362 307.503 472.415 307.501C473.609 307.453 469.167 307.45 470.102 307.499ZM704.77 307.572C704.892 307.576 710.009 307.58 710.176 307.576C712.845 307.498 702.5 307.49 704.77 307.572ZM321.61 307.609C319.205 307.656 316.327 307.662 314.409 307.602C316.8 307.605 319.206 307.606 321.61 307.609Z" fill="#D6D6D6"/>
</svg>
