<svg width="40" height="40" viewBox="0 0 40 40" fill="none" xmlns="http://www.w3.org/2000/svg">
<rect x="0.5" y="0.5" width="39" height="39" rx="3.5" fill="#333333"/>
<rect x="0.5" y="0.5" width="39" height="39" rx="3.5" stroke="#777777"/>
<path d="M26.6601 20.7549C26.6601 24.9924 23.7441 27.1111 20.2783 28.3399C20.0969 28.4025 19.8997 28.3995 19.7201 28.3314C16.246 27.1111 13.3301 24.9924 13.3301 20.7549V14.8226C13.3301 14.3545 13.7031 13.9751 14.1632 13.9751C15.8295 13.9751 17.9123 12.9581 19.3619 11.6699C19.7265 11.353 20.2636 11.353 20.6283 11.6699C22.0862 12.9666 24.1607 13.9751 25.827 13.9751C26.2871 13.9751 26.6601 14.3545 26.6601 14.8226V20.7549Z" stroke="#F59E0B" stroke-width="2" stroke-linecap="round" stroke-linejoin="round"/>
</svg>
