<svg width="96" height="76" viewBox="0 0 96 76" fill="none" xmlns="http://www.w3.org/2000/svg">
<path d="M80.0489 71.0496L82.0477 71.117L80.0489 71.0496ZM78.5115 74.6734C79.2658 75.4804 80.5314 75.5231 81.3383 74.7688L94.4884 62.4776C95.2954 61.7233 95.3381 60.4577 94.5839 59.6508C93.8296 58.8438 92.564 58.8011 91.757 59.5553L80.0681 70.4809L69.1425 58.7919C68.3883 57.985 67.1227 57.9423 66.3157 58.6965C65.5087 59.4508 65.466 60.7164 66.2203 61.5233L78.5115 74.6734ZM78.05 70.9821L77.9738 73.2402L81.9715 73.3752L82.0477 71.117L78.05 70.9821ZM1.18888 5.42129C41.9243 -2.50169 79.4501 29.507 78.05 70.9821L82.0477 71.117C83.5345 27.0726 43.6841 -6.91892 0.425203 1.49486L1.18888 5.42129Z" fill="#0077CC"/>
</svg>
