<svg width="107" height="89" viewBox="0 0 107 89" fill="none" xmlns="http://www.w3.org/2000/svg">
<path d="M101.32 16.9769L100.928 18.9381L101.32 16.9769ZM105.276 19.2103C106.195 18.5976 106.443 17.3558 105.831 16.4368L95.8456 1.46011C95.2329 0.541065 93.9911 0.292749 93.0721 0.905476C92.1531 1.5182 91.9047 2.75995 92.5175 3.67899L101.393 16.9916L88.0804 25.8671C87.1613 26.4798 86.913 27.7216 87.5258 28.6406C88.1385 29.5597 89.3802 29.808 90.2993 29.1952L105.276 19.2103ZM100.928 18.9381L103.774 19.5074L104.559 15.5851L101.712 15.0158L100.928 18.9381ZM4.3239 88.2362C10.3785 41.5184 54.7338 9.70047 100.928 18.9381L101.712 15.0158C53.2462 5.3238 6.70946 38.7066 0.357067 87.722L4.3239 88.2362Z" fill="#0077CC"/>
</svg>
