<svg width="106" height="88" viewBox="0 0 106 88" fill="none" xmlns="http://www.w3.org/2000/svg">
<path d="M101.127 16.7489L100.734 18.7101L101.127 16.7489ZM105.083 18.9823C106.002 18.3695 106.25 17.1278 105.637 16.2088L95.6525 1.23208C95.0398 0.313038 93.798 0.064722 92.879 0.677449C91.96 1.29017 91.7116 2.53192 92.3244 3.45096L101.2 16.7636L87.8873 25.6391C86.9682 26.2518 86.7199 27.4935 87.3326 28.4126C87.9454 29.3316 89.1871 29.5799 90.1062 28.9672L105.083 18.9823ZM100.734 18.7101L103.581 19.2794L104.366 15.357L101.519 14.7877L100.734 18.7101ZM4.13078 88.0081C10.1854 41.2904 54.5407 9.47244 100.734 18.7101L101.519 14.7877C53.0531 5.09577 6.51635 38.4786 0.163952 87.494L4.13078 88.0081Z" fill="#0077CC"/>
</svg>
