<svg width="96" height="76" viewBox="0 0 96 76" fill="none" xmlns="http://www.w3.org/2000/svg">
<path d="M80.2418 71.2776L82.2406 71.3451L80.2418 71.2776ZM78.7044 74.9014C79.4587 75.7084 80.7243 75.7511 81.5312 74.9969L94.6813 62.7056C95.4883 61.9514 95.531 60.6858 94.7767 59.8788C94.0225 59.0718 92.7569 59.0291 91.9499 59.7834L80.261 70.7089L69.3354 59.02C68.5811 58.213 67.3155 58.1703 66.5086 58.9245C65.7016 59.6788 65.6589 60.9444 66.4131 61.7514L78.7044 74.9014ZM78.2429 71.2101L78.1667 73.4683L82.1644 73.6032L82.2406 71.3451L78.2429 71.2101ZM1.38176 5.64932C42.1172 -2.27366 79.6429 29.735 78.2429 71.2101L82.2406 71.3451C83.7274 27.3006 43.877 -6.6909 0.618074 1.72289L1.38176 5.64932Z" fill="#0077CC"/>
</svg>
