<svg width="30" height="30" viewBox="0 0 30 30" fill="none" xmlns="http://www.w3.org/2000/svg">
<rect width="30" height="30" rx="15" fill="#FF0000"/>
<path d="M21.625 22.5C19.8889 22.5 18.1736 22.1217 16.4792 21.365C14.7847 20.6083 13.2431 19.5353 11.8542 18.1458C10.4653 16.7564 9.3925 15.2147 8.63583 13.5208C7.87917 11.8269 7.50056 10.1117 7.5 8.375C7.5 8.125 7.58333 7.91667 7.75 7.75C7.91667 7.58333 8.125 7.5 8.375 7.5H11.75C11.9444 7.5 12.1181 7.56611 12.2708 7.69833C12.4236 7.83056 12.5139 7.98667 12.5417 8.16667L13.0833 11.0833C13.1111 11.3056 13.1042 11.4931 13.0625 11.6458C13.0208 11.7986 12.9444 11.9306 12.8333 12.0417L10.8125 14.0833C11.0903 14.5972 11.42 15.0936 11.8017 15.5725C12.1833 16.0514 12.6036 16.5133 13.0625 16.9583C13.4931 17.3889 13.9444 17.7883 14.4167 18.1567C14.8889 18.525 15.3889 18.8617 15.9167 19.1667L17.875 17.2083C18 17.0833 18.1633 16.9897 18.365 16.9275C18.5667 16.8653 18.7644 16.8478 18.9583 16.875L21.8333 17.4583C22.0278 17.5139 22.1875 17.6147 22.3125 17.7608C22.4375 17.9069 22.5 18.07 22.5 18.25V21.625C22.5 21.875 22.4167 22.0833 22.25 22.25C22.0833 22.4167 21.875 22.5 21.625 22.5Z" fill="#FEFEFE"/>
</svg>
