<svg width="44" height="44" viewBox="0 0 44 44" fill="none" xmlns="http://www.w3.org/2000/svg">
<rect width="44" height="44" rx="4" fill="#0077CC"/>
<path d="M28.625 29.5C26.8889 29.5 25.1736 29.1217 23.4792 28.365C21.7847 27.6083 20.2431 26.5353 18.8542 25.1458C17.4653 23.7564 16.3925 22.2147 15.6358 20.5208C14.8792 18.8269 14.5006 17.1117 14.5 15.375C14.5 15.125 14.5833 14.9167 14.75 14.75C14.9167 14.5833 15.125 14.5 15.375 14.5H18.75C18.9444 14.5 19.1181 14.5661 19.2708 14.6983C19.4236 14.8306 19.5139 14.9867 19.5417 15.1667L20.0833 18.0833C20.1111 18.3056 20.1042 18.4931 20.0625 18.6458C20.0208 18.7986 19.9444 18.9306 19.8333 19.0417L17.8125 21.0833C18.0903 21.5972 18.42 22.0936 18.8017 22.5725C19.1833 23.0514 19.6036 23.5133 20.0625 23.9583C20.4931 24.3889 20.9444 24.7883 21.4167 25.1567C21.8889 25.525 22.3889 25.8617 22.9167 26.1667L24.875 24.2083C25 24.0833 25.1633 23.9897 25.365 23.9275C25.5667 23.8653 25.7644 23.8478 25.9583 23.875L28.8333 24.4583C29.0278 24.5139 29.1875 24.6147 29.3125 24.7608C29.4375 24.9069 29.5 25.07 29.5 25.25V28.625C29.5 28.875 29.4167 29.0833 29.25 29.25C29.0833 29.4167 28.875 29.5 28.625 29.5Z" fill="#FEFEFE"/>
</svg>
