<svg width="100" height="100" viewBox="0 0 100 100" fill="none" xmlns="http://www.w3.org/2000/svg">
<g filter="url(#filter0_i_240_595)">
<rect width="100" height="100" rx="50" fill="#FCFAFA"/>
<path d="M50 42.5C48.0109 42.5 46.1032 43.2902 44.6967 44.6967C43.2902 46.1032 42.5 48.0109 42.5 50C42.5 51.9891 43.2902 53.8968 44.6967 55.3033C46.1032 56.7098 48.0109 57.5 50 57.5C51.9891 57.5 53.8968 56.7098 55.3033 55.3033C56.7098 53.8968 57.5 51.9891 57.5 50C57.5 48.0109 56.7098 46.1032 55.3033 44.6967C53.8968 43.2902 51.9891 42.5 50 42.5ZM50 62.5C46.6848 62.5 43.5054 61.183 41.1612 58.8388C38.817 56.4946 37.5 53.3152 37.5 50C37.5 46.6848 38.817 43.5054 41.1612 41.1612C43.5054 38.817 46.6848 37.5 50 37.5C53.3152 37.5 56.4946 38.817 58.8388 41.1612C61.183 43.5054 62.5 46.6848 62.5 50C62.5 53.3152 61.183 56.4946 58.8388 58.8388C56.4946 61.183 53.3152 62.5 50 62.5ZM50 31.25C37.5 31.25 26.825 39.025 22.5 50C26.825 60.975 37.5 68.75 50 68.75C62.5 68.75 73.175 60.975 77.5 50C73.175 39.025 62.5 31.25 50 31.25Z" fill="#FF5555"/>
</g>
<defs>
<filter id="filter0_i_240_595" x="0" y="-1" width="100" height="101" filterUnits="userSpaceOnUse" color-interpolation-filters="sRGB">
<feFlood flood-opacity="0" result="BackgroundImageFix"/>
<feBlend mode="normal" in="SourceGraphic" in2="BackgroundImageFix" result="shape"/>
<feColorMatrix in="SourceAlpha" type="matrix" values="0 0 0 0 0 0 0 0 0 0 0 0 0 0 0 0 0 0 127 0" result="hardAlpha"/>
<feMorphology radius="1" operator="erode" in="SourceAlpha" result="effect1_innerShadow_240_595"/>
<feOffset dy="-1"/>
<feGaussianBlur stdDeviation="8.45"/>
<feComposite in2="hardAlpha" operator="arithmetic" k2="-1" k3="1"/>
<feColorMatrix type="matrix" values="0 0 0 0 1 0 0 0 0 0.333333 0 0 0 0 0.333333 0 0 0 0.25 0"/>
<feBlend mode="normal" in2="shape" result="effect1_innerShadow_240_595"/>
</filter>
</defs>
</svg>
