<svg width="39" height="39" viewBox="0 0 39 39" fill="none" xmlns="http://www.w3.org/2000/svg">
<rect width="38.9474" height="38.9474" rx="7.78947" fill="#FF2B2B"/>
<path d="M21.7586 9.99609C20.4846 9.99609 19.2628 10.5022 18.362 11.403C17.4612 12.3038 16.9551 13.5256 16.9551 14.7996V17.474H14.3846C14.2558 17.474 14.1509 17.5778 14.1509 17.7077V21.2389C14.1509 21.3677 14.2547 21.4726 14.3846 21.4726H16.9551V28.7168C16.9551 28.8456 17.0589 28.9505 17.1888 28.9505H20.72C20.8488 28.9505 20.9537 28.8466 20.9537 28.7168V21.4726H23.5471C23.654 21.4726 23.7475 21.3999 23.7735 21.296L24.6563 17.7648C24.665 17.7303 24.6657 17.6944 24.6584 17.6596C24.6511 17.6248 24.6359 17.5922 24.6141 17.5641C24.5922 17.5361 24.5643 17.5134 24.5324 17.4978C24.5005 17.4821 24.4654 17.474 24.4299 17.474H20.9537V14.7996C20.9537 14.6939 20.9745 14.5892 21.015 14.4916C21.0554 14.3939 21.1147 14.3052 21.1894 14.2304C21.2642 14.1557 21.3529 14.0964 21.4506 14.056C21.5482 14.0155 21.6529 13.9947 21.7586 13.9947H24.4589C24.5877 13.9947 24.6926 13.8908 24.6926 13.761V10.2298C24.6926 10.101 24.5888 9.99609 24.4589 9.99609H21.7586Z" fill="#FEFEFE"/>
</svg>
