<svg width="40" height="40" viewBox="0 0 40 40" fill="none" xmlns="http://www.w3.org/2000/svg">
<path d="M23.3333 11.6667C23.3333 7.53 24.1966 6.66667 28.3333 6.66667H31.6666C35.8033 6.66667 36.6666 7.53 36.6666 11.6667C36.6666 15.8033 35.8033 16.6667 31.6666 16.6667H28.3333C24.1966 16.6667 23.3333 15.8033 23.3333 11.6667ZM23.3333 11.6667L18.3333 20L23.3333 28.3333M23.3333 28.3333C23.3333 24.1967 24.1966 23.3333 28.3333 23.3333H31.6666C35.8033 23.3333 36.6666 24.1967 36.6666 28.3333C36.6666 32.47 35.8033 33.3333 31.6666 33.3333H28.3333C24.1966 33.3333 23.3333 32.47 23.3333 28.3333ZM3.33331 20C3.33331 15.8633 4.19665 15 8.33331 15H11.6666C15.8033 15 16.6666 15.8633 16.6666 20C16.6666 24.1367 15.8033 25 11.6666 25H8.33331C4.19665 25 3.33331 24.1367 3.33331 20Z" stroke="#FFD554" stroke-width="2.175" stroke-linecap="round" stroke-linejoin="round"/>
</svg>
