<svg width="45" height="46" viewBox="0 0 45 46" fill="none" xmlns="http://www.w3.org/2000/svg">
<path fill-rule="evenodd" clip-rule="evenodd" d="M27.3253 9.04644C34.3847 13.5802 38.3066 18.8574 39.091 24.878C40.3125 34.2502 31.9313 38.8374 27.6844 34.7161C23.4375 30.5949 25.9828 25.3627 29.0578 23.9321C32.1328 22.5014 34.0135 23.0002 33.6853 21.0886C33.3572 19.1771 28.9828 13.8793 25.1391 11.4118C25.0031 11.2958 24.9163 11.1324 24.8965 10.9548C24.8766 10.7771 24.9251 10.5986 25.0322 10.4555L25.9828 9.21894C26.3953 8.68269 26.791 8.70331 27.3253 9.0455M8.73846 9.04644C15.7978 13.5802 19.7197 18.8574 20.5041 24.878C21.7266 34.2502 13.3453 38.8374 9.09846 34.7161C4.85159 30.5949 7.3969 25.3627 10.4728 23.9321C13.5488 22.5014 15.4285 23.0002 15.1003 21.0886C14.7722 19.1771 10.3969 13.8793 6.55315 11.4118C6.41727 11.2957 6.3307 11.1322 6.31102 10.9546C6.29134 10.777 6.34004 10.5985 6.44721 10.4555L7.3969 9.21894C7.8094 8.68269 8.20502 8.70331 8.73846 9.0455" fill="#D6D6D6"/>
</svg>
