<svg width="40" height="39" viewBox="0 0 40 39" fill="none" xmlns="http://www.w3.org/2000/svg">
<rect x="0.526318" width="38.9474" height="38.9474" rx="7.78947" fill="#FF2B2B"/>
<path d="M21.0677 9.08789C22.2361 9.09101 22.8291 9.09724 23.3412 9.11178L23.5427 9.11905C23.7753 9.12736 24.0048 9.13774 24.2821 9.15021C25.3872 9.20214 26.1412 9.37662 26.8028 9.63315C27.4883 9.89696 28.0657 10.2542 28.6432 10.8307C29.1715 11.3497 29.5802 11.9778 29.8407 12.671C30.0972 13.3326 30.2717 14.0867 30.3236 15.1928C30.3361 15.469 30.3465 15.6986 30.3548 15.9322L30.361 16.1337C30.3766 16.6447 30.3828 17.2378 30.3849 18.4062L30.386 19.181V20.5415C30.3885 21.2991 30.3805 22.0566 30.3621 22.814L30.3558 23.0155C30.3475 23.2492 30.3371 23.4787 30.3247 23.755C30.2728 24.8611 30.0962 25.614 29.8407 26.2767C29.5802 26.97 29.1715 27.598 28.6432 28.1171C28.1242 28.6454 27.4961 29.0541 26.8028 29.3146C26.1412 29.5711 25.3872 29.7456 24.2821 29.7975L23.5427 29.8287L23.3412 29.8349C22.8291 29.8494 22.2361 29.8567 21.0677 29.8588L20.2929 29.8598H18.9334C18.1755 29.8625 17.4176 29.8545 16.6599 29.8359L16.4584 29.8297C16.2118 29.8204 15.9653 29.8096 15.7189 29.7975C14.6138 29.7456 13.8598 29.5711 13.1972 29.3146C12.5043 29.0539 11.8766 28.6453 11.3578 28.1171C10.8291 27.5981 10.4201 26.97 10.1593 26.2767C9.90277 25.6151 9.72828 24.8611 9.67635 23.755L9.64519 23.0155L9.64 22.814C9.62086 22.0567 9.6122 21.2991 9.61404 20.5415V18.4062C9.61116 17.6486 9.61878 16.8911 9.63689 16.1337L9.64416 15.9322C9.65247 15.6986 9.66285 15.469 9.67531 15.1928C9.72724 14.0867 9.90173 13.3337 10.1583 12.671C10.4197 11.9775 10.8294 11.3494 11.3589 10.8307C11.8773 10.3026 12.5046 9.89392 13.1972 9.63315C13.8598 9.37662 14.6128 9.20214 15.7189 9.15021C15.9952 9.13774 16.2257 9.12736 16.4584 9.11905L16.6599 9.11282C17.4172 9.09436 18.1748 9.0864 18.9323 9.08893L21.0677 9.08789ZM20 14.2809C18.6227 14.2809 17.3019 14.828 16.328 15.8019C15.3541 16.7757 14.807 18.0966 14.807 19.4739C14.807 20.8511 15.3541 22.172 16.328 23.1458C17.3019 24.1197 18.6227 24.6668 20 24.6668C21.3773 24.6668 22.6981 24.1197 23.672 23.1458C24.6459 22.172 25.193 20.8511 25.193 19.4739C25.193 18.0966 24.6459 16.7757 23.672 15.8019C22.6981 14.828 21.3773 14.2809 20 14.2809ZM20 16.3581C20.4092 16.358 20.8144 16.4385 21.1924 16.595C21.5705 16.7516 21.914 16.981 22.2033 17.2703C22.4927 17.5596 22.7223 17.903 22.8789 18.281C23.0356 18.659 23.1162 19.0642 23.1163 19.4733C23.1164 19.8825 23.0359 20.2877 22.8793 20.6657C22.7228 21.0438 22.4934 21.3873 22.2041 21.6767C21.9148 21.9661 21.5714 22.1956 21.1934 22.3523C20.8154 22.5089 20.4102 22.5896 20.001 22.5896C19.1747 22.5896 18.3822 22.2614 17.7978 21.6771C17.2135 21.0927 16.8853 20.3002 16.8853 19.4739C16.8853 18.6475 17.2135 17.855 17.7978 17.2707C18.3822 16.6863 19.1747 16.3581 20.001 16.3581M25.4537 12.723C25.1094 12.723 24.7791 12.8598 24.5357 13.1032C24.2922 13.3467 24.1554 13.6769 24.1554 14.0212C24.1554 14.3655 24.2922 14.6958 24.5357 14.9392C24.7791 15.1827 25.1094 15.3195 25.4537 15.3195C25.798 15.3195 26.1282 15.1827 26.3717 14.9392C26.6151 14.6958 26.7519 14.3655 26.7519 14.0212C26.7519 13.6769 26.6151 13.3467 26.3717 13.1032C26.1282 12.8598 25.798 12.723 25.4537 12.723Z" fill="#FCFAFA"/>
</svg>
