<svg width="39" height="39" viewBox="0 0 39 39" fill="none" xmlns="http://www.w3.org/2000/svg">
<rect x="0.0526352" width="38.9474" height="38.9474" rx="7.78947" fill="#FF2B2B"/>
<path d="M27.3802 31.9364H31.4335C31.5804 31.9364 31.7212 31.8798 31.8251 31.779C31.929 31.6783 31.9874 31.5416 31.9874 31.399L31.9895 23.0882C31.9895 18.7444 31.025 15.4056 25.7942 15.4056C23.8057 15.3338 21.9306 16.3286 20.9187 17.9896C20.9138 17.9977 20.9062 18.0039 20.8973 18.0075C20.8883 18.011 20.8784 18.0116 20.8691 18.0091C20.8597 18.0067 20.8515 18.0013 20.8456 17.9939C20.8397 17.9864 20.8364 17.9773 20.8363 17.968V16.3442C20.8363 16.2016 20.778 16.0649 20.6741 15.964C20.5702 15.8632 20.4293 15.8066 20.2824 15.8066H16.4359C16.289 15.8066 16.1481 15.8632 16.0442 15.964C15.9403 16.0649 15.8819 16.2016 15.8819 16.3442V31.3982C15.8819 31.5408 15.9403 31.6775 16.0442 31.7783C16.1481 31.8791 16.289 31.9358 16.4359 31.9358H20.4889C20.6358 31.9358 20.7767 31.8791 20.8806 31.7783C20.9844 31.6775 21.0428 31.5408 21.0428 31.3982V23.9568C21.0428 21.8527 21.4541 19.815 24.1421 19.815C26.7919 19.815 26.8263 22.2227 26.8263 24.0931V31.3989C26.8263 31.5414 26.8846 31.6782 26.9885 31.779C27.0924 31.8798 27.2333 31.9364 27.3802 31.9364ZM7.06316 10.6956C7.06316 12.29 8.41569 13.6018 10.0587 13.6018C11.7014 13.6017 13.0531 12.289 13.0531 10.6949C13.0528 9.10082 11.701 7.78906 10.0582 7.78906C8.41499 7.78906 7.06316 9.10122 7.06316 10.6956ZM8.02684 31.9364H12.0853C12.2322 31.9364 12.3731 31.8798 12.4769 31.779C12.5808 31.6782 12.6392 31.5414 12.6392 31.3989V16.3442C12.6392 16.2016 12.5808 16.0649 12.4769 15.964C12.3731 15.8632 12.2322 15.8066 12.0853 15.8066H8.02684C7.87993 15.8066 7.73904 15.8632 7.63516 15.964C7.53128 16.0649 7.47292 16.2016 7.47292 16.3442V31.3989C7.47292 31.5414 7.53128 31.6782 7.63516 31.779C7.73904 31.8798 7.87993 31.9364 8.02684 31.9364Z" fill="white"/>
</svg>
