<svg width="40" height="41" viewBox="0 0 40 41" fill="none" xmlns="http://www.w3.org/2000/svg">
<path d="M18.3333 33.8333C15.4068 33.8422 12.5838 32.7508 10.4242 30.7757C8.26464 28.8005 6.92628 26.0859 6.67456 23.1702C6.42284 20.2544 7.27615 17.3506 9.06525 15.0346C10.8543 12.7185 13.4485 11.1595 16.3333 10.6667C25.8333 8.83333 28.3333 7.96666 31.6667 3.83333C33.3333 7.16666 35 10.8 35 17.1667C35 26.3333 27.0333 33.8333 18.3333 33.8333Z" stroke="#FFD554" stroke-width="2" stroke-linecap="round" stroke-linejoin="round"/>
<path d="M3.33334 35.5C3.33334 30.5 6.41667 26.5667 11.8 25.5C15.8333 24.7 20 22.1667 21.6667 20.5" stroke="#FFD554" stroke-width="2" stroke-linecap="round" stroke-linejoin="round"/>
</svg>
