<svg width="52" height="52" viewBox="0 0 52 52" fill="none" xmlns="http://www.w3.org/2000/svg">
<g filter="url(#filter0_d_193_291)">
<rect x="9" y="5" width="34" height="34" rx="5" fill="#FF8080"/>
<path d="M20 17H25C25.2652 17 25.5196 17.1054 25.7071 17.2929C25.8946 17.4804 26 17.7348 26 18C26 18.2652 25.8946 18.5196 25.7071 18.7071C25.5196 18.8946 25.2652 19 25 19H20C19.7348 19 19.4804 18.8946 19.2929 18.7071C19.1054 18.5196 19 18.2652 19 18C19 17.7348 19.1054 17.4804 19.2929 17.2929C19.4804 17.1054 19.7348 17 20 17ZM27 25H32C32.2652 25 32.5196 25.1054 32.7071 25.2929C32.8946 25.4804 33 25.7348 33 26C33 26.2652 32.8946 26.5196 32.7071 26.7071C32.5196 26.8946 32.2652 27 32 27H27C26.7348 27 26.4804 26.8946 26.2929 26.7071C26.1054 26.5196 26 26.2652 26 26C26 25.7348 26.1054 25.4804 26.2929 25.2929C26.4804 25.1054 26.7348 25 27 25ZM20 21H32C32.2652 21 32.5196 21.1054 32.7071 21.2929C32.8946 21.4804 33 21.7348 33 22C33 22.2652 32.8946 22.5196 32.7071 22.7071C32.5196 22.8946 32.2652 23 32 23H20C19.7348 23 19.4804 22.8946 19.2929 22.7071C19.1054 22.5196 19 22.2652 19 22C19 21.7348 19.1054 21.4804 19.2929 21.2929C19.4804 21.1054 19.7348 21 20 21Z" fill="#FEFEFE"/>
</g>
<defs>
<filter id="filter0_d_193_291" x="0.7" y="0.7" width="50.6" height="50.6" filterUnits="userSpaceOnUse" color-interpolation-filters="sRGB">
<feFlood flood-opacity="0" result="BackgroundImageFix"/>
<feColorMatrix in="SourceAlpha" type="matrix" values="0 0 0 0 0 0 0 0 0 0 0 0 0 0 0 0 0 0 127 0" result="hardAlpha"/>
<feOffset dy="4"/>
<feGaussianBlur stdDeviation="4.15"/>
<feComposite in2="hardAlpha" operator="out"/>
<feColorMatrix type="matrix" values="0 0 0 0 0 0 0 0 0 0 0 0 0 0 0 0 0 0 0.25 0"/>
<feBlend mode="normal" in2="BackgroundImageFix" result="effect1_dropShadow_193_291"/>
<feBlend mode="normal" in="SourceGraphic" in2="effect1_dropShadow_193_291" result="shape"/>
</filter>
</defs>
</svg>
