<svg width="100" height="100" viewBox="0 0 100 100" fill="none" xmlns="http://www.w3.org/2000/svg">
<g filter="url(#filter0_i_240_1095)">
<rect width="100" height="100" rx="50" fill="#FCFAFA"/>
<path d="M50 27.5C47.0453 27.5 44.1194 28.082 41.3896 29.2127C38.6598 30.3434 36.1794 32.0008 34.0901 34.0901C32.0008 36.1794 30.3434 38.6598 29.2127 41.3896C28.082 44.1194 27.5 47.0453 27.5 50C27.5 52.9547 28.082 55.8806 29.2127 58.6104C30.3434 61.3402 32.0008 63.8206 34.0901 65.9099C36.1794 67.9992 38.6598 69.6566 41.3896 70.7873C44.1194 71.918 47.0453 72.5 50 72.5C55.9674 72.5 61.6903 70.1295 65.9099 65.9099C70.1295 61.6903 72.5 55.9674 72.5 50C72.5 44.0326 70.1295 38.3097 65.9099 34.0901C61.6903 29.8705 55.9674 27.5 50 27.5ZM22.5 50C22.5 34.8125 34.8125 22.5 50 22.5C65.1875 22.5 77.5 34.8125 77.5 50C77.5 65.1875 65.1875 77.5 50 77.5C34.8125 77.5 22.5 65.1875 22.5 50ZM50 37.5C46.6848 37.5 43.5054 38.817 41.1612 41.1612C38.817 43.5054 37.5 46.6848 37.5 50C37.5 53.3152 38.817 56.4946 41.1612 58.8388C43.5054 61.183 46.6848 62.5 50 62.5C53.3152 62.5 56.4946 61.183 58.8388 58.8388C61.183 56.4946 62.5 53.3152 62.5 50C62.5 46.6848 61.183 43.5054 58.8388 41.1612C56.4946 38.817 53.3152 37.5 50 37.5ZM32.5 50C32.5 47.7019 32.9527 45.4262 33.8321 43.303C34.7116 41.1798 36.0006 39.2507 37.6256 37.6256C39.2507 36.0006 41.1798 34.7116 43.303 33.8321C45.4262 32.9527 47.7019 32.5 50 32.5C52.2981 32.5 54.5738 32.9527 56.697 33.8321C58.8202 34.7116 60.7493 36.0006 62.3744 37.6256C63.9994 39.2507 65.2884 41.1798 66.1679 43.303C67.0474 45.4262 67.5 47.7019 67.5 50C67.5 54.6413 65.6563 59.0925 62.3744 62.3744C59.0925 65.6563 54.6413 67.5 50 67.5C45.3587 67.5 40.9075 65.6563 37.6256 62.3744C34.3437 59.0925 32.5 54.6413 32.5 50ZM45 50C45 48.6739 45.5268 47.4021 46.4645 46.4645C47.4021 45.5268 48.6739 45 50 45C51.3261 45 52.5979 45.5268 53.5355 46.4645C54.4732 47.4021 55 48.6739 55 50C55 51.3261 54.4732 52.5979 53.5355 53.5355C52.5979 54.4732 51.3261 55 50 55C48.6739 55 47.4021 54.4732 46.4645 53.5355C45.5268 52.5979 45 51.3261 45 50Z" fill="#55A4DD"/>
</g>
<defs>
<filter id="filter0_i_240_1095" x="0" y="-1" width="100" height="101" filterUnits="userSpaceOnUse" color-interpolation-filters="sRGB">
<feFlood flood-opacity="0" result="BackgroundImageFix"/>
<feBlend mode="normal" in="SourceGraphic" in2="BackgroundImageFix" result="shape"/>
<feColorMatrix in="SourceAlpha" type="matrix" values="0 0 0 0 0 0 0 0 0 0 0 0 0 0 0 0 0 0 127 0" result="hardAlpha"/>
<feMorphology radius="1" operator="erode" in="SourceAlpha" result="effect1_innerShadow_240_1095"/>
<feOffset dy="-1"/>
<feGaussianBlur stdDeviation="8.45"/>
<feComposite in2="hardAlpha" operator="arithmetic" k2="-1" k3="1"/>
<feColorMatrix type="matrix" values="0 0 0 0 0.333333 0 0 0 0 0.643137 0 0 0 0 0.866667 0 0 0 0.25 0"/>
<feBlend mode="normal" in2="shape" result="effect1_innerShadow_240_1095"/>
</filter>
</defs>
</svg>
