<svg width="40" height="41" viewBox="0 0 40 41" fill="none" xmlns="http://www.w3.org/2000/svg">
<g clip-path="url(#clip0_418_159)">
<path d="M20 0.499993C16.4608 0.398978 13.0259 1.70545 10.4484 4.13299C7.87085 6.56053 6.36107 9.91105 6.25 13.45C6.25 21.525 12.725 21.525 12.725 26.375V34.025C12.841 35.8447 13.6699 37.5452 15.032 38.7574C16.394 39.9697 18.1792 40.5958 20 40.5C21.8234 40.596 23.6114 39.9707 24.9774 38.759C26.3434 37.5474 27.1777 35.8468 27.3 34.025V26.375C27.3 21.525 33.775 21.525 33.775 13.45C33.664 9.90659 32.1507 6.5522 29.5678 4.12395C26.9848 1.69569 23.5435 0.392231 20 0.499993ZM20 37.375C19.0137 37.4536 18.0349 37.1495 17.2669 36.5258C16.4988 35.902 16.0004 35.0065 15.875 34.025V31H24.15V34.025C24.0187 35.0085 23.5151 35.9043 22.743 36.5275C21.9709 37.1508 20.9891 37.4541 20 37.375ZM27.75 19.475C26.6954 20.3026 25.8306 21.3468 25.2139 22.5371C24.5972 23.7274 24.2429 25.0361 24.175 26.375V28H15.85V26.5C15.7998 25.1397 15.454 23.8067 14.8367 22.5935C14.2193 21.3804 13.3452 20.3162 12.275 19.475C11.3388 18.7816 10.5855 17.8707 10.0802 16.821C9.57498 15.7712 9.33292 14.6142 9.375 13.45C9.48557 10.7397 10.6659 8.18379 12.6575 6.34219C14.649 4.50059 17.2894 3.5235 20 3.62499C22.7106 3.5235 25.351 4.50059 27.3425 6.34219C29.3341 8.18379 30.5144 10.7397 30.625 13.45C30.6671 14.6142 30.425 15.7712 29.9198 16.821C29.4145 17.8707 28.6612 18.7816 27.725 19.475H27.75Z" fill="#FFD554"/>
<path d="M20 7.15C18.0136 7.12516 16.0985 7.8894 14.675 9.275C14.0998 9.81836 13.6413 10.4732 13.3275 11.1996C13.0138 11.926 12.8513 12.7087 12.85 13.5C12.8467 13.7056 12.8843 13.9099 12.9607 14.1008C13.0371 14.2918 13.1508 14.4656 13.295 14.6122C13.4393 14.7588 13.6113 14.8752 13.801 14.9547C13.9907 15.0341 14.1943 15.075 14.4 15.075C14.8177 15.075 15.2183 14.9091 15.5137 14.6137C15.8091 14.3183 15.975 13.9177 15.975 13.5C15.9798 13.1227 16.0622 12.7505 16.217 12.4064C16.3718 12.0623 16.5958 11.7538 16.875 11.5C17.2888 11.099 17.7781 10.7842 18.3146 10.5739C18.851 10.3637 19.4239 10.262 20 10.275C20.2218 10.3031 20.447 10.2837 20.6607 10.218C20.8744 10.1523 21.0716 10.0419 21.2394 9.89413C21.4071 9.74633 21.5414 9.56452 21.6334 9.36078C21.7254 9.15704 21.773 8.93605 21.773 8.7125C21.773 8.48894 21.7254 8.26795 21.6334 8.06422C21.5414 7.86048 21.4071 7.67866 21.2394 7.53086C21.0716 7.38306 20.8744 7.27265 20.6607 7.20698C20.447 7.14131 20.2218 7.12189 20 7.15Z" fill="#FFD554"/>
</g>
<defs>
<clipPath id="clip0_418_159">
<rect width="40" height="40" fill="white" transform="translate(0 0.5)"/>
</clipPath>
</defs>
</svg>
