<svg width="75" height="75" viewBox="0 0 75 75" fill="none" xmlns="http://www.w3.org/2000/svg">
<rect x="0.5" y="0.5" width="74" height="74" rx="37" fill="#0077CC" fill-opacity="0.5"/>
<rect x="12.5" y="12.5" width="50" height="50" rx="25" fill="#0077CC" fill-opacity="0.7"/>
<rect x="22.5" y="22.5" width="30" height="30" rx="15" fill="#0077CC"/>
<path d="M42.9885 35.9559C43.2687 36.1049 43.503 36.3273 43.6665 36.5993C43.8299 36.8713 43.9162 37.1827 43.9162 37.5C43.9162 37.8173 43.8299 38.1287 43.6665 38.4007C43.503 38.6727 43.2687 38.8951 42.9885 39.0441L35.5148 43.1082C34.3114 43.7633 32.8333 42.9116 32.8333 41.5647V33.4359C32.8333 32.0884 34.3114 31.2373 35.5148 31.8913L42.9885 35.9559Z" fill="#FCFAFA"/>
</svg>
