<svg width="40" height="41" viewBox="0 0 40 41" fill="none" xmlns="http://www.w3.org/2000/svg">
<g clip-path="url(#clip0_380_143)">
<path d="M36.3483 9.70666L21.3433 0.79833L21.3217 0.786664L21.4517 0.711664H21.175C20.862 0.560295 20.5169 0.487697 20.1694 0.500187C19.822 0.512678 19.4829 0.609878 19.1817 0.78333L18.0167 1.455L3.67667 9.71166C3.35115 9.89998 3.08073 10.1704 2.89239 10.4959C2.70405 10.8214 2.60438 11.1906 2.60333 11.5667V29.43C2.60333 30.1967 3.01167 30.9033 3.67667 31.285L19.1833 40.2133C19.8533 40.6 20.68 40.5933 21.345 40.1983L36.3483 31.29C36.9983 30.905 37.3967 30.205 37.3967 29.4483V11.5467C37.3967 10.7917 36.9983 10.0917 36.3483 9.70666ZM4.21167 10.6383L19.7383 1.69833C19.9014 1.60897 20.0851 1.5638 20.271 1.56731C20.4569 1.57082 20.6387 1.62288 20.7983 1.71833L35.8017 10.6267C35.941 10.7116 36.0591 10.8273 36.1467 10.965L28.575 15.2233L21.0783 10.7233C20.8356 10.5769 20.5583 10.4975 20.2748 10.4934C19.9913 10.4893 19.7119 10.5606 19.465 10.7L11.3833 15.2467L3.81167 11.0483C3.90512 10.8778 4.04344 10.736 4.21167 10.6383ZM27.7617 24.46L20.2683 20.3067V11.5683C20.3597 11.5693 20.449 11.5952 20.5267 11.6433L27.7617 15.985V24.46ZM19.8233 21.2833L27.6433 25.6183L20.2583 30.05L12.5117 25.6917C12.432 25.648 12.3657 25.5835 12.32 25.505L19.8233 21.2833ZM19.7167 39.2867L4.21 30.3583C4.04655 30.2647 3.9108 30.1296 3.81653 29.9665C3.72227 29.8034 3.67286 29.6183 3.67333 29.43V12.1967L11.1667 16.35V25.2233C11.1667 25.8033 11.48 26.3383 11.985 26.6233L20.0033 31.1333L20.265 31.28V39.425C20.0731 39.4291 19.8837 39.3813 19.7167 39.2867Z" fill="#FFD554"/>
</g>
<defs>
<clipPath id="clip0_380_143">
<rect width="40" height="40" fill="white" transform="translate(0 0.5)"/>
</clipPath>
</defs>
</svg>
