<svg width="101" height="100" viewBox="0 0 101 100" fill="none" xmlns="http://www.w3.org/2000/svg">
<rect x="0.5" width="100" height="100" rx="50" fill="#0077CC"/>
<path d="M53.3333 41.6665C53.3333 37.5298 54.1967 36.6665 58.3333 36.6665H61.6667C65.8033 36.6665 66.6667 37.5298 66.6667 41.6665C66.6667 45.8032 65.8033 46.6665 61.6667 46.6665H58.3333C54.1967 46.6665 53.3333 45.8032 53.3333 41.6665ZM53.3333 41.6665L48.3333 49.9998L53.3333 58.3332M53.3333 58.3332C53.3333 54.1965 54.1967 53.3332 58.3333 53.3332H61.6667C65.8033 53.3332 66.6667 54.1965 66.6667 58.3332C66.6667 62.4698 65.8033 63.3332 61.6667 63.3332H58.3333C54.1967 63.3332 53.3333 62.4698 53.3333 58.3332ZM33.3333 49.9998C33.3333 45.8632 34.1967 44.9998 38.3333 44.9998H41.6667C45.8033 44.9998 46.6667 45.8632 46.6667 49.9998C46.6667 54.1365 45.8033 54.9998 41.6667 54.9998H38.3333C34.1967 54.9998 33.3333 54.1365 33.3333 49.9998Z" stroke="#EFEFEF" stroke-width="1.5" stroke-linecap="round" stroke-linejoin="round"/>
</svg>
