<svg width="100" height="100" viewBox="0 0 100 100" fill="none" xmlns="http://www.w3.org/2000/svg">
<rect width="100" height="100" rx="50" fill="#0077CC"/>
<path d="M42.5 41.6667C44.341 41.6667 45.8334 40.1743 45.8334 38.3333C45.8334 36.4924 44.341 35 42.5 35C40.6591 35 39.1667 36.4924 39.1667 38.3333C39.1667 40.1743 40.6591 41.6667 42.5 41.6667Z" stroke="#EFEFEF" stroke-width="1.5" stroke-linecap="round" stroke-linejoin="round"/>
<path d="M57.5 41.6667C59.341 41.6667 60.8334 40.1743 60.8334 38.3333C60.8334 36.4924 59.341 35 57.5 35C55.6591 35 54.1667 36.4924 54.1667 38.3333C54.1667 40.1743 55.6591 41.6667 57.5 41.6667Z" stroke="#EFEFEF" stroke-width="1.5" stroke-linecap="round" stroke-linejoin="round"/>
<path d="M38.3333 46.6665H46.6667L45 64.9998H40L38.3333 46.6665ZM53.3333 46.6665H61.6667L60 64.9998H55L53.3333 46.6665Z" stroke="#EFEFEF" stroke-width="1.5" stroke-linecap="round" stroke-linejoin="round"/>
</svg>
