<svg width="101" height="100" viewBox="0 0 101 100" fill="none" xmlns="http://www.w3.org/2000/svg">
<rect x="0.5" width="100" height="100" rx="50" fill="#0077CC"/>
<path d="M66.4167 35.3608H49.5558C48.9886 35.3608 48.4447 35.5861 48.0435 35.9871C47.6424 36.3881 47.4169 36.932 47.4167 37.4992V44.4508M54.3533 59.9575H49.5558C48.9885 59.9575 48.4444 59.7321 48.0432 59.331C47.642 58.9298 47.4167 58.3857 47.4167 57.8183V50.8675" stroke="#EFEFEF" stroke-width="1.5" stroke-linecap="round" stroke-linejoin="round"/>
<path d="M66.4167 59.9575L55.8492 64.55C55.6864 64.6208 55.5086 64.65 55.3318 64.635C55.155 64.6199 54.9846 64.5611 54.8362 64.4638C54.6878 64.3664 54.566 64.2337 54.4817 64.0775C54.3974 63.9214 54.3533 63.7467 54.3533 63.5692V42.0058C54.3537 41.5891 54.4756 41.1816 54.7042 40.8332C54.9327 40.4847 55.2579 40.2105 55.64 40.0442L66.4167 35.3608V59.9575Z" stroke="#EFEFEF" stroke-width="1.5" stroke-linecap="round" stroke-linejoin="round"/>
<path d="M38.9858 51.0618C40.865 51.0618 42.3883 49.5385 42.3883 47.6593C42.3883 45.7802 40.865 44.2568 38.9858 44.2568C37.1067 44.2568 35.5833 45.7802 35.5833 47.6593C35.5833 49.5385 37.1067 51.0618 38.9858 51.0618Z" stroke="#EFEFEF" stroke-width="1.5" stroke-linecap="round" stroke-linejoin="round"/>
<path d="M51.9358 51.0608V47.6592H42.3842M49.7033 49.6208V47.6592" stroke="#EFEFEF" stroke-width="1.5" stroke-linecap="round" stroke-linejoin="round"/>
</svg>
