<svg width="100" height="100" viewBox="0 0 100 100" fill="none" xmlns="http://www.w3.org/2000/svg">
<rect width="100" height="100" rx="50" fill="#0077CC"/>
<mask id="path-2-inside-1_86_904" fill="white">
<path d="M32.95 62.4365V60.7699H67.05V62.4365H32.95ZM37.6933 59.1032C36.9256 59.1032 36.285 58.846 35.7717 58.3315C35.2583 57.8171 35.0011 57.1765 35 56.4099V40.1282C35 39.3615 35.2572 38.721 35.7717 38.2065C36.2861 37.6921 36.9261 37.4354 37.6917 37.4365H62.3083C63.075 37.4365 63.715 37.6932 64.2283 38.2065C64.7417 38.7199 64.9989 39.3604 65 40.1282V56.4115C65 57.1782 64.7428 57.8182 64.2283 58.3315C63.7139 58.8449 63.0733 59.1021 62.3067 59.1032H37.6933ZM37.6933 57.4365H62.3083C62.5639 57.4365 62.7989 57.3293 63.0133 57.1149C63.2278 56.9004 63.3344 56.6654 63.3333 56.4099V40.1282C63.3333 39.8726 63.2267 39.6376 63.0133 39.4232C62.7989 39.2087 62.5633 39.1015 62.3067 39.1015H37.6933C37.4367 39.1015 37.2011 39.2087 36.9867 39.4232C36.7733 39.6365 36.6667 39.8715 36.6667 40.1282V56.4115C36.6667 56.6671 36.7733 56.9015 36.9867 57.1149C37.2 57.3282 37.435 57.4354 37.6917 57.4365"/>
</mask>
<path d="M32.95 62.4365V60.7699H67.05V62.4365H32.95ZM37.6933 59.1032C36.9256 59.1032 36.285 58.846 35.7717 58.3315C35.2583 57.8171 35.0011 57.1765 35 56.4099V40.1282C35 39.3615 35.2572 38.721 35.7717 38.2065C36.2861 37.6921 36.9261 37.4354 37.6917 37.4365H62.3083C63.075 37.4365 63.715 37.6932 64.2283 38.2065C64.7417 38.7199 64.9989 39.3604 65 40.1282V56.4115C65 57.1782 64.7428 57.8182 64.2283 58.3315C63.7139 58.8449 63.0733 59.1021 62.3067 59.1032H37.6933ZM37.6933 57.4365H62.3083C62.5639 57.4365 62.7989 57.3293 63.0133 57.1149C63.2278 56.9004 63.3344 56.6654 63.3333 56.4099V40.1282C63.3333 39.8726 63.2267 39.6376 63.0133 39.4232C62.7989 39.2087 62.5633 39.1015 62.3067 39.1015H37.6933C37.4367 39.1015 37.2011 39.2087 36.9867 39.4232C36.7733 39.6365 36.6667 39.8715 36.6667 40.1282V56.4115C36.6667 56.6671 36.7733 56.9015 36.9867 57.1149C37.2 57.3282 37.435 57.4354 37.6917 57.4365" fill="#FEFEFE"/>
<path d="M37.1667 57.4365V39.1032H36.1667V57.4365H37.1667ZM32.95 62.4365H31.95V63.4365H32.95V62.4365ZM32.95 60.7699V59.7699H31.95V60.7699H32.95ZM67.05 60.7699H68.05V59.7699H67.05V60.7699ZM67.05 62.4365V63.4365H68.05V62.4365H67.05ZM35 56.4099H34L34 56.4113L35 56.4099ZM37.6917 37.4365L37.6902 38.4365H37.6917V37.4365ZM65 40.1282H66V40.1267L65 40.1282ZM62.3067 59.1032V60.1032L62.3081 60.1032L62.3067 59.1032ZM63.3333 56.4099H62.3333L62.3333 56.4142L63.3333 56.4099ZM63.0133 39.4232L63.7223 38.7179L63.7204 38.7161L63.0133 39.4232ZM33.95 62.4365V60.7699H31.95V62.4365H33.95ZM32.95 61.7699H67.05V59.7699H32.95V61.7699ZM66.05 60.7699V62.4365H68.05V60.7699H66.05ZM67.05 61.4365H32.95V63.4365H67.05V61.4365ZM37.6933 58.1032C37.1745 58.1032 36.7938 57.9401 36.4795 57.6252L35.0638 59.0379C35.7762 59.7518 36.6766 60.1032 37.6933 60.1032V58.1032ZM36.4795 57.6252C36.164 57.309 36.0007 56.9269 36 56.4084L34 56.4113C34.0015 57.4262 34.3527 58.3252 35.0638 59.0379L36.4795 57.6252ZM36 56.4099V40.1282H34V56.4099H36ZM36 40.1282C36 39.6109 36.1628 39.2296 36.4788 38.9136L35.0646 37.4994C34.3517 38.2123 34 39.1122 34 40.1282H36ZM36.4788 38.9136C36.7947 38.5977 37.1749 38.4358 37.6902 38.4365L37.6931 36.4365C36.6773 36.4351 35.7775 36.7864 35.0646 37.4994L36.4788 38.9136ZM37.6917 38.4365H62.3083V36.4365H37.6917V38.4365ZM62.3083 38.4365C62.8263 38.4365 63.2068 38.5992 63.5212 38.9136L64.9354 37.4994C64.2232 36.7872 63.3237 36.4365 62.3083 36.4365V38.4365ZM63.5212 38.9136C63.8357 39.2281 63.9992 39.6096 64 40.1296L66 40.1267C65.9985 39.1112 65.6476 38.2116 64.9354 37.4994L63.5212 38.9136ZM64 40.1282V56.4115H66V40.1282H64ZM64 56.4115C64 56.9288 63.8372 57.3091 63.522 57.6237L64.9347 59.0394C65.6483 58.3273 66 57.4276 66 56.4115H64ZM63.522 57.6237C63.2058 57.9392 62.8237 58.1024 62.3052 58.1032L62.3081 60.1032C63.323 60.1017 64.222 59.7505 64.9347 59.0394L63.522 57.6237ZM62.3067 58.1032H37.6933V60.1032H62.3067V58.1032ZM37.6933 58.4365H62.3083V56.4365H37.6933V58.4365ZM62.3083 58.4365C62.8779 58.4365 63.3561 58.1863 63.7204 57.822L62.3062 56.4078C62.269 56.4449 62.2529 56.4501 62.2611 56.4463C62.2651 56.4445 62.2726 56.4417 62.2826 56.4395C62.2927 56.4373 62.3017 56.4365 62.3083 56.4365V58.4365ZM63.7204 57.822C64.0856 57.4568 64.3358 56.977 64.3333 56.4055L62.3333 56.4142C62.3333 56.4073 62.3341 56.3979 62.3363 56.3873C62.3386 56.3768 62.3416 56.3689 62.3436 56.3645C62.3477 56.3553 62.3431 56.3709 62.3062 56.4078L63.7204 57.822ZM64.3333 56.4099V40.1282H62.3333V56.4099H64.3333ZM64.3333 40.1282C64.3333 39.5604 64.0853 39.0828 63.7223 38.7179L62.3044 40.1285C62.3412 40.1654 62.3464 40.1816 62.3427 40.1736C62.341 40.1698 62.3383 40.1626 62.3362 40.1529C62.334 40.1431 62.3333 40.1344 62.3333 40.1282H64.3333ZM63.7204 38.7161C63.3551 38.3507 62.8762 38.1015 62.3067 38.1015V40.1015C62.3006 40.1015 62.2921 40.1008 62.2824 40.0987C62.2727 40.0966 62.2655 40.0939 62.2615 40.0921C62.2534 40.0884 62.2694 40.0935 62.3062 40.1303L63.7204 38.7161ZM62.3067 38.1015H37.6933V40.1015H62.3067V38.1015ZM37.6933 38.1015C37.1238 38.1015 36.6449 38.3507 36.2796 38.7161L37.6938 40.1303C37.7306 40.0935 37.7466 40.0884 37.7385 40.0921C37.7345 40.0939 37.7273 40.0966 37.7176 40.0987C37.7079 40.1008 37.6994 40.1015 37.6933 40.1015V38.1015ZM36.2796 38.7161C35.9141 39.0815 35.6667 39.5601 35.6667 40.1282H37.6667C37.6667 40.1339 37.666 40.1422 37.6639 40.1518C37.6618 40.1614 37.6591 40.1686 37.6573 40.1728C37.6533 40.1814 37.6579 40.1661 37.6938 40.1303L36.2796 38.7161ZM35.6667 40.1282V56.4115H37.6667V40.1282H35.6667ZM35.6667 56.4115C35.6667 56.9797 35.9151 57.4575 36.2796 57.822L37.6938 56.4078C37.6576 56.3716 37.6529 56.3561 37.6569 56.3649C37.6588 56.3691 37.6616 56.3766 37.6638 56.3865C37.6659 56.3965 37.6667 56.4053 37.6667 56.4115H35.6667ZM36.2796 57.822C36.6442 58.1866 37.121 58.4341 37.6873 58.4365L37.696 56.4365C37.7013 56.4366 37.7093 56.4372 37.7184 56.4392C37.7275 56.4412 37.7343 56.4438 37.738 56.4455C37.7458 56.449 37.7299 56.4439 37.6938 56.4078L36.2796 57.822Z" fill="#EFEFEF" mask="url(#path-2-inside-1_86_904)"/>
</svg>
