<svg width="100" height="100" viewBox="0 0 100 100" fill="none" xmlns="http://www.w3.org/2000/svg">
<rect width="100" height="100" rx="50" fill="#0077CC"/>
<path d="M37.0029 55.2378L37.003 55.2378C40.6196 58.8325 44.9853 60.6562 49.9937 60.6562C54.9979 60.6562 59.3667 58.8403 62.9754 55.2469H62.9816L62.9908 55.2378C64.5317 53.7037 65.8279 51.9421 66.8339 50.0145L66.8415 50L66.8339 49.9855C65.8277 48.0581 64.5315 46.2965 62.9908 44.7622L62.9908 44.7622C59.3741 41.1675 55.0084 39.3438 50 39.3438C44.9915 39.3438 40.6259 41.1675 37.0092 44.7622L37.0092 44.7622C35.4683 46.2963 34.1721 48.0579 33.166 49.9855L33.1585 50L33.166 50.0144C34.1702 51.9416 35.4642 53.7032 37.0029 55.2378ZM63.8576 43.9565C66.7143 46.8132 67.9906 49.6418 68.0433 49.7596C68.0763 49.8357 68.0934 49.9178 68.0934 50.0008C68.0934 50.0838 68.0763 50.1659 68.0433 50.2421C67.991 50.3604 66.7148 53.1879 63.8576 56.0451C61.2114 58.6913 56.6595 61.8438 50 61.8438C43.3405 61.8438 38.7948 58.6975 36.1424 56.0451C33.2859 53.1886 32.0096 50.3619 31.9567 50.2422C31.9237 50.166 31.9066 50.0838 31.9066 50.0008C31.9066 49.9178 31.9237 49.8356 31.9567 49.7595C32.0101 49.64 33.2865 46.8123 36.1424 43.9565C38.7886 41.3103 43.3389 38.1562 50 38.1562C56.6611 38.1562 61.2114 41.3103 63.8576 43.9565ZM46.1978 44.3096C47.3232 43.5576 48.6464 43.1563 50 43.1562C51.8144 43.1583 53.554 43.88 54.837 45.163C56.12 46.446 56.8417 48.1856 56.8437 50C56.8437 51.3536 56.4424 52.6767 55.6904 53.8022C54.9384 54.9276 53.8695 55.8048 52.619 56.3228C51.3684 56.8408 49.9924 56.9763 48.6648 56.7122C47.3373 56.4482 46.1178 55.7964 45.1607 54.8393C44.2036 53.8821 43.5518 52.6627 43.2877 51.3351C43.0237 50.0076 43.1592 48.6315 43.6772 47.381C44.1952 46.1305 45.0724 45.0616 46.1978 44.3096ZM46.8575 54.703C47.7877 55.3245 48.8813 55.6562 50 55.6562C51.5001 55.6562 52.9388 55.0603 53.9996 53.9996C55.0603 52.9388 55.6562 51.5001 55.6562 50C55.6562 48.8813 55.3245 47.7877 54.703 46.8576C54.0815 45.9274 53.1981 45.2024 52.1645 44.7743C51.131 44.3462 49.9937 44.2342 48.8965 44.4524C47.7993 44.6707 46.7915 45.2094 46.0004 46.0004C45.2094 46.7915 44.6707 47.7993 44.4524 48.8965C44.2342 49.9937 44.3462 51.131 44.7743 52.1646C45.2024 53.1981 45.9274 54.0815 46.8575 54.703Z" fill="#FEFEFE" stroke="#EFEFEF" stroke-width="0.0625"/>
</svg>
