<svg width="100" height="100" viewBox="0 0 100 100" fill="none" xmlns="http://www.w3.org/2000/svg">
<g filter="url(#filter0_i_240_1102)">
<rect width="100" height="100" rx="50" fill="#FCFAFA"/>
<path d="M27.5 35L35 37.5M35 37.5L27.5 60C29.6639 61.6234 32.2961 62.5009 35.0013 62.5009C37.7064 62.5009 40.3386 61.6234 42.5025 60M35 37.5L42.5 60M35 37.5L50 32.5M50 32.5L65 37.5M50 32.5V27.5M50 32.5V72.5M65 37.5L72.5 35M65 37.5L57.5 60C59.6639 61.6234 62.2961 62.5009 65.0012 62.5009C67.7064 62.5009 70.3386 61.6234 72.5025 60L65 37.5ZM50 72.5H42.5M50 72.5H57.5" stroke="#FFDC71" stroke-width="3" stroke-linecap="round" stroke-linejoin="round"/>
</g>
<defs>
<filter id="filter0_i_240_1102" x="0" y="-1" width="100" height="101" filterUnits="userSpaceOnUse" color-interpolation-filters="sRGB">
<feFlood flood-opacity="0" result="BackgroundImageFix"/>
<feBlend mode="normal" in="SourceGraphic" in2="BackgroundImageFix" result="shape"/>
<feColorMatrix in="SourceAlpha" type="matrix" values="0 0 0 0 0 0 0 0 0 0 0 0 0 0 0 0 0 0 127 0" result="hardAlpha"/>
<feMorphology radius="1" operator="erode" in="SourceAlpha" result="effect1_innerShadow_240_1102"/>
<feOffset dy="-1"/>
<feGaussianBlur stdDeviation="8.45"/>
<feComposite in2="hardAlpha" operator="arithmetic" k2="-1" k3="1"/>
<feColorMatrix type="matrix" values="0 0 0 0 1 0 0 0 0 0.862745 0 0 0 0 0.443137 0 0 0 0.25 0"/>
<feBlend mode="normal" in2="shape" result="effect1_innerShadow_240_1102"/>
</filter>
</defs>
</svg>
